<svg width="18" height="21" viewBox="0 0 18 21" fill="none" xmlns="http://www.w3.org/2000/svg">
<path d="M1 0.202026C1.17597 0.202162 1.34879 0.24873 1.501 0.337026L17.505 9.60303C17.6565 9.69093 17.7823 9.8171 17.8698 9.96891C17.9572 10.1207 18.0032 10.2928 18.0032 10.468C18.0032 10.6432 17.9572 10.8153 17.8698 10.9671C17.7823 11.1189 17.6565 11.2451 17.505 11.333L1.501 20.599C1.34903 20.687 1.17657 20.7334 1.00098 20.7336C0.825381 20.7338 0.652836 20.6877 0.500694 20.6C0.348553 20.5123 0.22218 20.3861 0.134287 20.2341C0.0463936 20.0821 7.85313e-05 19.9096 0 19.734V1.20203C0 0.93681 0.105357 0.682456 0.292893 0.49492C0.48043 0.307383 0.734784 0.202026 1 0.202026V0.202026ZM9.292 11.882L4.794 16.38L10.493 13.081L9.293 11.881L9.292 11.882ZM2 4.58603V16.346L7.88 10.466L2 4.58603V4.58603ZM12.284 8.88803L10.706 10.468L12.284 12.045L15.008 10.468L12.283 8.88903L12.284 8.88803ZM4.794 4.55203L9.294 9.05203L10.493 7.85203L4.794 4.55203V4.55203Z" fill="white"/>
</svg>
