<svg width="20" height="21" viewBox="0 0 20 21" fill="none" xmlns="http://www.w3.org/2000/svg">
<path d="M10 7.46802C9.20435 7.46802 8.44129 7.78409 7.87868 8.3467C7.31607 8.90931 7 9.67237 7 10.468C7 11.2637 7.31607 12.0267 7.87868 12.5893C8.44129 13.1519 9.20435 13.468 10 13.468C10.7956 13.468 11.5587 13.1519 12.1213 12.5893C12.6839 12.0267 13 11.2637 13 10.468C13 9.67237 12.6839 8.90931 12.1213 8.3467C11.5587 7.78409 10.7956 7.46802 10 7.46802ZM10 5.46802C11.3261 5.46802 12.5979 5.9948 13.5355 6.93248C14.4732 7.87017 15 9.14194 15 10.468C15 11.7941 14.4732 13.0659 13.5355 14.0036C12.5979 14.9412 11.3261 15.468 10 15.468C8.67392 15.468 7.40215 14.9412 6.46447 14.0036C5.52678 13.0659 5 11.7941 5 10.468C5 9.14194 5.52678 7.87017 6.46447 6.93248C7.40215 5.9948 8.67392 5.46802 10 5.46802V5.46802ZM16.5 5.21802C16.5 5.54954 16.3683 5.86748 16.1339 6.1019C15.8995 6.33632 15.5815 6.46802 15.25 6.46802C14.9185 6.46802 14.6005 6.33632 14.3661 6.1019C14.1317 5.86748 14 5.54954 14 5.21802C14 4.8865 14.1317 4.56855 14.3661 4.33413C14.6005 4.09971 14.9185 3.96802 15.25 3.96802C15.5815 3.96802 15.8995 4.09971 16.1339 4.33413C16.3683 4.56855 16.5 4.8865 16.5 5.21802V5.21802ZM10 2.46802C7.526 2.46802 7.122 2.47502 5.971 2.52602C5.187 2.56302 4.661 2.66802 4.173 2.85802C3.739 3.02602 3.426 3.22702 3.093 3.56102C2.78001 3.86342 2.53935 4.2326 2.389 4.64102C2.199 5.13102 2.094 5.65602 2.058 6.43902C2.006 7.54302 2 7.92902 2 10.468C2 12.942 2.007 13.346 2.058 14.497C2.095 15.28 2.2 15.807 2.389 16.294C2.559 16.729 2.759 17.042 3.091 17.374C3.428 17.71 3.741 17.911 4.171 18.077C4.665 18.268 5.191 18.374 5.971 18.41C7.075 18.462 7.461 18.468 10 18.468C12.474 18.468 12.878 18.461 14.029 18.41C14.811 18.373 15.338 18.268 15.826 18.079C16.259 17.91 16.574 17.709 16.906 17.377C17.243 17.04 17.444 16.727 17.61 16.297C17.8 15.804 17.906 15.277 17.942 14.497C17.994 13.393 18 13.007 18 10.468C18 7.99402 17.993 7.59002 17.942 6.43902C17.905 5.65702 17.8 5.12902 17.61 4.64102C17.4593 4.23302 17.2191 3.86398 16.907 3.56102C16.6047 3.24786 16.2355 3.00718 15.827 2.85702C15.337 2.66702 14.811 2.56202 14.029 2.52602C12.925 2.47402 12.539 2.46802 10 2.46802ZM10 0.468018C12.717 0.468018 13.056 0.478018 14.122 0.528018C15.187 0.578018 15.912 0.745018 16.55 0.993018C17.21 1.24702 17.766 1.59102 18.322 2.14602C18.8305 2.64591 19.224 3.25061 19.475 3.91802C19.722 4.55502 19.89 5.28102 19.94 6.34602C19.987 7.41202 20 7.75102 20 10.468C20 13.185 19.99 13.524 19.94 14.59C19.89 15.655 19.722 16.38 19.475 17.018C19.2247 17.6858 18.8311 18.2906 18.322 18.79C17.822 19.2983 17.2173 19.6918 16.55 19.943C15.913 20.19 15.187 20.358 14.122 20.408C13.056 20.455 12.717 20.468 10 20.468C7.283 20.468 6.944 20.458 5.878 20.408C4.813 20.358 4.088 20.19 3.45 19.943C2.78233 19.6925 2.17753 19.299 1.678 18.79C1.16941 18.2902 0.775931 17.6855 0.525 17.018C0.277 16.381 0.11 15.655 0.0599999 14.59C0.0129999 13.524 0 13.185 0 10.468C0 7.75102 0.00999994 7.41202 0.0599999 6.34602C0.11 5.28002 0.277 4.55602 0.525 3.91802C0.775236 3.2502 1.1688 2.64534 1.678 2.14602C2.17767 1.63725 2.78243 1.24375 3.45 0.993018C4.088 0.745018 4.812 0.578018 5.878 0.528018C6.944 0.481018 7.283 0.468018 10 0.468018Z" fill="white"/>
</svg>
