<svg width="19" height="23" viewBox="0 0 19 23" fill="none" xmlns="http://www.w3.org/2000/svg">
<path d="M13.7286 7.67612C13.2556 7.63912 12.7476 7.75212 11.9696 8.04912C12.0356 8.02412 11.2276 8.33912 11.0016 8.41912C10.4996 8.59412 10.0866 8.69011 9.62357 8.69011C9.16557 8.69011 8.74357 8.59811 8.25757 8.43511C8.10257 8.38211 7.94657 8.32512 7.75257 8.24912C7.67057 8.21712 7.37057 8.09712 7.30457 8.07212C6.65657 7.81812 6.29157 7.72212 5.98857 7.73012C4.83657 7.74512 3.74557 8.41011 3.11257 9.51211C1.82057 11.7561 2.53557 15.8111 4.42457 18.5431C5.43057 19.9871 5.98057 20.5031 6.20257 20.4961C6.42457 20.4861 6.58757 20.4391 6.98557 20.2711L7.15257 20.2001C8.15757 19.7711 8.86257 19.5821 9.92357 19.5821C10.9446 19.5821 11.6266 19.7681 12.5916 20.1841L12.7596 20.2561C13.1576 20.4261 13.3016 20.4641 13.5516 20.4581C13.9096 20.4531 14.3506 20.0411 15.3296 18.6041C15.5976 18.2131 15.8346 17.8011 16.0396 17.3841C15.9048 17.2731 15.7741 17.1574 15.6476 17.0371C14.3586 15.8091 13.5616 14.1531 13.5396 12.1071C13.518 10.5933 14.0156 9.11773 14.9496 7.92612C14.5576 7.78141 14.1459 7.69711 13.7286 7.67612V7.67612ZM13.8836 5.68212C14.5916 5.73012 16.6196 5.94612 17.9396 7.87812C17.8316 7.93812 15.5156 9.28211 15.5396 12.0901C15.5756 15.4501 18.4796 16.5661 18.5156 16.5781C18.4916 16.6621 18.0476 18.1741 16.9796 19.7341C16.0556 21.0901 15.0956 22.4341 13.5836 22.4581C12.0956 22.4941 11.6156 21.5821 9.92357 21.5821C8.21957 21.5821 7.69157 22.4341 6.28757 22.4941C4.82357 22.5421 3.71957 21.0301 2.78357 19.6861C0.875573 16.9261 -0.576427 11.9101 1.37957 8.51411C2.35157 6.82211 4.07957 5.75412 5.96357 5.73012C7.39157 5.69412 8.74757 6.69012 9.62357 6.69012C10.4876 6.69012 12.0356 5.53812 13.8836 5.68212V5.68212ZM12.7436 3.85812C11.9636 4.79412 10.6916 5.52612 9.45557 5.43012C9.28757 4.15812 9.91157 2.82612 10.6316 1.99812C11.4356 1.06212 12.7796 0.366115 13.8956 0.318115C14.0396 1.61412 13.5236 2.92212 12.7436 3.85812Z" fill="white"/>
</svg>
