<svg width="20" height="19" viewBox="0 0 20 19" fill="none" xmlns="http://www.w3.org/2000/svg">
<path d="M4.94043 2.46804C4.94016 2.99847 4.7292 3.50708 4.35394 3.88196C3.97868 4.25685 3.46986 4.46731 2.93943 4.46704C2.409 4.46678 1.90039 4.25581 1.52551 3.88055C1.15062 3.50529 0.940165 2.99647 0.94043 2.46604C0.940695 1.93561 1.15166 1.42701 1.52692 1.05212C1.90218 0.677235 2.411 0.466776 2.94143 0.467041C3.47186 0.467306 3.98047 0.678274 4.35535 1.05353C4.73024 1.4288 4.9407 1.93761 4.94043 2.46804V2.46804ZM5.00043 5.94804H1.00043V18.468H5.00043V5.94804ZM11.3204 5.94804H7.34043V18.468H11.2804V11.898C11.2804 8.23804 16.0504 7.89804 16.0504 11.898V18.468H20.0004V10.538C20.0004 4.36804 12.9404 4.59804 11.2804 7.62804L11.3204 5.94804V5.94804Z" fill="white"/>
</svg>
