<svg width="20" height="17" viewBox="0 0 20 17" fill="none" xmlns="http://www.w3.org/2000/svg">
<path d="M17.606 3.46302C17.53 3.16502 17.314 2.94002 17.067 2.87102C16.63 2.74802 14.5 2.46802 10 2.46802C5.5 2.46802 3.372 2.74802 2.931 2.87102C2.687 2.93902 2.471 3.16402 2.394 3.46302C2.285 3.88702 2 5.66402 2 8.46802C2 11.272 2.285 13.048 2.394 13.474C2.47 13.771 2.686 13.996 2.932 14.064C3.372 14.188 5.5 14.468 10 14.468C14.5 14.468 16.629 14.188 17.069 14.065C17.313 13.997 17.529 13.772 17.606 13.473C17.715 13.049 18 11.268 18 8.46802C18 5.66802 17.715 3.88802 17.606 3.46302ZM19.543 2.96602C20 4.74802 20 8.46802 20 8.46802C20 8.46802 20 12.188 19.543 13.97C19.289 14.955 18.546 15.73 17.605 15.992C15.896 16.468 10 16.468 10 16.468C10 16.468 4.107 16.468 2.395 15.992C1.45 15.726 0.708 14.952 0.457 13.97C2.98023e-08 12.188 0 8.46802 0 8.46802C0 8.46802 2.98023e-08 4.74802 0.457 2.96602C0.711 1.98102 1.454 1.20602 2.395 0.944017C4.107 0.468017 10 0.468018 10 0.468018C10 0.468018 15.896 0.468017 17.605 0.944017C18.55 1.21002 19.292 1.98402 19.543 2.96602V2.96602ZM8 11.968V4.96802L14 8.46802L8 11.968Z" fill="white"/>
</svg>
