<svg width="857" height="323" viewBox="0 0 857 323" fill="none" xmlns="http://www.w3.org/2000/svg">
<g clip-path="url(#clip0_3_12)">
<path d="M120.332 261.336C119.51 261.336 118.63 261.16 117.808 260.749C114.932 259.34 113.699 255.816 115.049 252.938C116.399 250.119 120.039 248.827 122.915 250.178C125.791 251.588 127.024 255.111 125.674 257.989C124.676 260.044 122.621 261.336 120.332 261.336ZM105.188 252.469C103.955 252.469 102.781 252.116 101.842 251.411C83.4693 238.609 69.2643 220.932 60.8117 200.26C60.166 198.851 60.166 197.265 60.8117 195.797C61.3986 194.329 62.5139 193.213 63.9814 192.625C66.9163 191.392 70.4382 192.919 71.6709 195.797C79.243 214.237 91.9219 230.093 108.358 241.663L108.534 241.78C109.825 242.661 110.705 244.012 110.94 245.539C111.234 247.066 110.94 248.651 110.001 249.943C108.886 251.529 107.066 252.469 105.188 252.469Z" fill="white"/>
<path d="M790.847 132.136C788.44 132.136 786.327 130.727 785.388 128.495C777.816 109.937 765.019 94.0811 748.525 82.5705C745.883 80.6913 745.238 76.9914 747.057 74.3487C748.877 71.8234 752.693 71.1187 755.217 72.9393C773.589 85.7418 787.794 103.419 796.247 124.032C796.893 125.5 796.834 127.086 796.247 128.554C795.66 129.963 794.545 131.079 793.077 131.725C792.373 132.019 791.61 132.136 790.847 132.136ZM736.668 74.7011C735.787 74.7011 734.966 74.5249 734.144 74.1725C732.735 73.4678 731.678 72.2933 731.15 70.7664C730.622 69.2982 730.739 67.7125 731.385 66.3031C732.735 63.4842 736.433 62.1922 739.251 63.5429C742.127 64.9524 743.359 68.476 742.009 71.4124C741.011 73.4678 738.957 74.7011 736.668 74.7011Z" fill="white"/>
<path d="M184.372 179.118H179.031C170.93 179.118 164.356 172.541 164.356 164.436C164.356 156.332 170.93 149.755 179.031 149.755H184.372C192.473 149.755 199.047 156.332 199.047 164.436C199.047 172.541 192.473 179.118 184.372 179.118Z" fill="white"/>
<path d="M382.715 193.8L323.136 266.093C309.166 283.594 288.269 293.636 265.846 293.636H161.421C88.5762 293.636 29.3493 234.381 29.3493 161.5C29.3493 88.6195 88.5762 29.3636 161.421 29.3636H266.433C288.504 29.3636 309.224 39.1711 323.195 56.2607L349.609 88.5607C354.775 94.8445 363.99 95.7842 370.271 90.6162C376.552 85.5069 377.491 76.228 372.325 69.9442L345.911 37.6442C326.306 13.6835 297.367 -0.0587311 266.433 -0.0587311H161.421C72.4341 -3.80647e-06 0 72.4695 0 161.5C0 250.531 72.4341 323 161.421 323H265.846C297.191 323 326.423 308.964 345.911 284.592L415.762 199.849C408.836 195.973 400.912 193.8 392.753 193.8H382.715Z" fill="white"/>
<path d="M695.579 0H590.802C559.692 0 530.577 13.8596 511.089 37.9965L426.504 140.593C436.072 143.823 444.994 148.463 453.271 154.277L533.805 56.5544C547.776 39.2298 568.555 29.3636 590.802 29.3636H695.579C768.424 29.3636 827.651 88.6195 827.651 161.5C827.651 234.381 768.424 293.636 695.579 293.636H589.921C568.144 293.636 547.658 284.064 533.688 267.327L481.505 204.958L462.663 182.466C445.288 161.676 419.754 149.755 392.694 149.755H228.866C220.766 149.755 214.191 156.332 214.191 164.436C214.191 172.541 220.766 179.118 228.866 179.118H392.694C411.067 179.118 428.383 187.223 440.181 201.317L511.148 286.178C530.694 309.551 559.398 323 589.921 323H695.579C784.566 323 857 250.531 857 161.5C857 72.4695 784.566 0 695.579 0Z" fill="white"/>
</g>
<defs>
<clipPath id="clip0_3_12">
<rect width="857" height="323" fill="white"/>
</clipPath>
</defs>
</svg>
