<svg xmlns="http://www.w3.org/2000/svg" viewBox="0 0 48 48" version="1.1">
  <path d="M16.224 4.56384C11.200992000000001 4.668096 6.608784 4.90656 5.545920000000001 5.118288C3.67608 5.490816 2.0712960000000002 6.786432 1.316112 8.533104C0.941328 9.399984 0.8365440000000001 10.122576 0.6498240000000001 13.128C0.491472 15.675888 0.470304 16.501056 0.551424 16.961424C0.751344 18.095952 1.40688 18.966528 2.689968 19.801248C4.2804 20.836032 5.086752000000001 22.248528 5.086752000000001 24C5.086752000000001 25.752816000000003 4.280016 27.164496000000003 2.6841600000000003 28.204320000000003C1.9383359999999998 28.690272000000004 1.472688 29.119296000000002 1.130496 29.635872C0.800208 30.134544 0.644016 30.513216 0.551088 31.040544C0.470352 31.498704 0.491712 32.327904000000004 0.6498240000000001 34.872C0.8365440000000001 37.877424000000005 0.941328 38.600016000000004 1.316112 39.466896C2.0712960000000002 41.213568 3.67608 42.509184 5.545920000000001 42.881712C6.6513599999999995 43.101936 11.065871999999999 43.325664 16.56 43.439952000000005C19.50072 43.501104000000005 28.499280000000002 43.501104000000005 31.44 43.439952000000005C36.934128 43.325664 41.348639999999996 43.101936 42.454080000000005 42.881712C44.310816 42.511776000000005 45.933744 41.207568 46.670016000000004 39.49368C47.063520000000004 38.577696 47.185392 37.715136 47.373984 34.512C47.512512 32.158656 47.52744 31.50144 47.452176 31.066992000000003C47.35968 30.5328 47.193264 30.123984 46.869696 29.635872C46.527216 29.119248 46.061472 28.690128 45.316608 28.204800000000002C44.103696 27.414528 43.422144 26.518224 43.045632 25.218432C42.949872 24.887904000000002 42.936096 24.73368 42.93672 24C42.937344 23.271408 42.951888000000004 23.109792000000002 43.046352 22.781568C43.419312 21.48552 44.103312 20.585712 45.316608 19.795199999999998C46.061472 19.309872 46.527216 18.880752 46.869696 18.364128C47.193264 17.876016 47.35968 17.4672 47.452176 16.933008C47.52744 16.49856 47.512512 15.841344000000001 47.373984 13.488C47.23512 11.129232 47.126304 10.041648 46.963968 9.389808C46.427664 7.236672 44.653776 5.556528 42.454080000000005 5.118288C41.348639999999996 4.898064000000001 36.934128 4.674336 31.44 4.560048C28.85664 4.506336 18.875088 4.508784 16.224 4.56384M18.768 7.535952C12.914064 7.6145760000000005 7.002288 7.871472000000001 6.066144 8.087856C5.034 8.326416 4.225536 9.103871999999999 3.957984 10.115184000000001C3.871728 10.441104 3.728112 12.046656 3.6283200000000004 13.8C3.497664 16.095648 3.48816 16.440383999999998 3.55224 16.564992C3.6529920000000002 16.761024 3.947136 17.038608 4.248 17.221584C5.6346240000000005 18.0648 6.617952 19.135344 7.321872 20.568C8.380704000000001 22.723104000000003 8.380704000000001 25.276896 7.321872 27.432000000000002C6.617952 28.864656 5.6346240000000005 29.9352 4.248 30.778416C3.947136 30.961392 3.6529920000000002 31.238976 3.55224 31.435008C3.48816 31.559616 3.497664 31.904352 3.6283200000000004 34.2C3.7287840000000005 35.965152 3.8719200000000003 37.55952 3.959712 37.891584C4.262688 39.03696 5.210976 39.823056 6.48 39.980784C7.188576 40.068816000000005 9.996912 40.225776 12.528 40.3188C18.50688 40.538448 29.493120000000005 40.538448 35.472 40.3188C38.003088 40.225776 40.811424 40.068816000000005 41.52 39.980784C42.786384000000005 39.823392 43.741104 39.031728 44.039472 37.891584C44.159328 37.433616 44.33448 35.228592 44.451312 32.706288C44.5116 31.405536 44.513856 31.418592 44.175936 31.0968C44.0748 31.000463999999997 43.8408 30.830112 43.656 30.718224C42.005232 29.718816000000004 40.735152 28.06392 40.198656 26.213424000000003C39.970128 25.425168000000003 39.91608 25.00176 39.91608 24C39.91608 22.99824 39.970128 22.574832 40.198656 21.786576C40.735152 19.93608 42.005232 18.281184 43.656 17.281776C43.8408 17.169888 44.0748 16.999536 44.175936 16.9032C44.514432 16.58088 44.512176000000004 16.593888 44.450928000000005 15.293280000000001C44.32929600000001 12.710256000000001 44.159088000000004 10.565472 44.039472 10.108416C43.74048 8.965728 42.789216 8.176944 41.52 8.019216C40.80576 7.930464 37.979568 7.772880000000001 35.448 7.680672C31.502304000000002 7.536912 23.720352 7.469376 18.768 7.535952M23.400000000000002 13.315680000000002C22.749792 13.465728 22.25328 13.746768000000001 21.812928 14.214048C21.515328 14.52984 21.378287999999998 14.766096000000001 20.451648000000002 16.561008L19.720128000000003 17.978064 17.840064 18.347856C16.093152 18.691488 15.931104000000001 18.731856 15.552 18.918288C15.237888000000002 19.0728 15.06048 19.202784 14.780976 19.483488C14.378400000000001 19.887743999999998 14.209680000000002 20.157552000000003 14.034528000000002 20.6772C13.717775999999999 21.616992 13.911503999999999 22.692624 14.536800000000001 23.465472C14.659536 23.617248 15.2892 24.330336 15.936 25.050192000000003C16.917072 26.142048 17.110032 26.380272 17.100047999999997 26.487504C17.093424 26.558159999999997 16.990848 27.401328 16.872048 28.361136C16.7532 29.320943999999997 16.656 30.268224 16.656 30.466224C16.656 31.417008 17.156208 32.330832 17.98752 32.898864C18.440208 33.208128 18.912576 33.363792 19.49616 33.395952C20.246351999999998 33.43728 20.425824000000002 33.376512000000005 22.332 32.43576L24 31.612560000000002 25.668 32.43528C26.745456 32.966736000000004 27.447551999999998 33.284544000000004 27.651072 33.333024C28.234223999999998 33.471792 28.942608 33.413952 29.496000000000002 33.182352C30.586944 32.725776 31.344144000000004 31.615632 31.343952 30.473088C31.343856 30.189888 30.979104000000003 26.975376 30.892416 26.494224C30.873696 26.390256 31.053600000000003 26.168976 32.121696 24.982224C32.809824 24.217584000000002 33.445296000000006 23.497439999999997 33.533856 23.381808C34.095600000000005 22.648608 34.267296 21.57264 33.965472000000005 20.6772C33.79032 20.157552000000003 33.6216 19.887743999999998 33.219024 19.483488C32.93952 19.202784 32.762112 19.0728 32.448 18.918288C32.068896 18.731856 31.906848 18.691488 30.159936000000002 18.347856L28.279872 17.978064 27.548352 16.561008C27.145968000000003 15.781680000000001 26.729904 14.9928 26.623727999999996 14.808C26.241408000000003 14.142672000000001 25.618272000000005 13.628736000000002 24.925632 13.407504C24.462384 13.25952 23.812704 13.220400000000001 23.400000000000002 13.315680000000002M23.017152 18.167184C22.489776 19.18272 21.987552 20.111136000000002 21.901104 20.230272C21.713136000000002 20.48928 21.463104 20.655936 21.113712000000003 20.7552C20.971968 20.795472 19.972704 21.001535999999998 18.893088 21.21312C17.813472 21.424704000000002 16.92528 21.603744 16.919328 21.610944C16.913376000000003 21.618096 17.587008 22.377072000000002 18.416256 23.297520000000002C19.310592 24.290208 19.971648000000002 25.065120000000004 20.0412 25.202352C20.24136 25.597344000000003 20.235552000000002 25.774848000000002 19.947167999999998 28.079232C19.80024 29.253600000000002 19.68 30.252095999999998 19.68 30.298080000000002C19.68 30.363024 20.115552 30.164784 21.62904 29.410848L23.578128 28.44 24 28.44L24.421872 28.44 26.37096 29.410848C27.884448000000003 30.164784 28.32 30.363024 28.32 30.298080000000002C28.32 30.252095999999998 28.19976 29.253600000000002 28.052832 28.079232C27.764448 25.774848000000002 27.75864 25.597344000000003 27.9588 25.202352C28.028351999999998 25.065120000000004 28.689408 24.290208 29.583744 23.297520000000002C30.412992000000003 22.377072000000002 31.086624000000004 21.618096 31.080672 21.610944C31.07472 21.603744 30.186528 21.424704000000002 29.106912 21.21312C28.027296000000003 21.001535999999998 27.028032 20.795472 26.886288 20.7552C26.534496 20.655264 26.286672 20.488944 26.094095999999997 20.2236C26.005008 20.100816000000002 25.502784000000002 19.1724 24.978048 18.160464C24.453312 17.148576000000002 24.013199999999998 16.320624 24 16.320672000000002C23.986800000000002 16.320672000000002 23.544528000000003 17.1516 23.017152 18.167184" stroke="none" fill="#FFF" fill-rule="evenodd" stroke-width="0.048"></path>
</svg>