<svg xmlns="http://www.w3.org/2000/svg" fill="none" viewBox="0 0 14 14">
  <g id="portfolio--portfolio-resume-profile-employee">
    <path id="Intersect" stroke="#ffffff" stroke-linecap="round" stroke-linejoin="round" d="M6.99999 3.5c-1.60059 0 -3.27371 0 -4.67629 0.24064 -0.67229 0.11535 -1.20192 0.60821 -1.346258 1.24904C0.75 5.99944 0.75 6.94132 0.75 8.37501s0 2.37559 0.227442 3.38529c0.144338 0.6409 0.673968 1.1337 1.346258 1.2491 1.40258 0.2406 3.0757 0.2406 4.67629 0.2406 1.6006 0 3.27371 0 4.67631 -0.2406 0.6723 -0.1154 1.2019 -0.6082 1.3462 -1.2491 0.2275 -1.0097 0.2275 -1.9516 0.2275 -3.38529s0 -2.37557 -0.2275 -3.38533c-0.1443 -0.64083 -0.6739 -1.13369 -1.3462 -1.24904C10.2737 3.5 8.60059 3.5 6.99999 3.5" stroke-width="1"></path>
    <path id="Vector 194" stroke="#ffffff" stroke-linecap="round" stroke-linejoin="round" d="M4.396 3.53469v-0.70135C4.396 1.68274 5.3676 0.75 6.56613 0.75h0.86806c1.19853 0 2.17013 0.93274 2.17013 2.08334v0.70135" stroke-width="1"></path>
    <path id="Intersect_2" stroke="#ffffff" stroke-linecap="round" stroke-linejoin="round" d="m4.02344 12.8162 0.09624 -0.4106c0.16053 -0.6045 0.50773 -1.1448 0.99431 -1.5425 0.53225 -0.435 1.19854 -0.6727 1.88596 -0.6727 0.68743 0 1.35372 0.2377 1.88597 0.6727 0.48657 0.3977 0.83378 0.938 0.9943 1.5425l0.09634 0.4227" stroke-width="1"></path>
    <path id="Vector" stroke="#ffffff" stroke-linecap="round" stroke-linejoin="round" d="M6.99948 8.94182c1.08857 0 1.70089 -0.61232 1.70089 -1.70089s-0.61232 -1.70089 -1.70089 -1.70089 -1.7009 0.61232 -1.7009 1.70089 0.61233 1.70089 1.7009 1.70089" stroke-width="1"></path>
  </g>
</svg>