<svg xmlns="http://www.w3.org/2000/svg" fill="none" viewBox="0 0 14 14" id="Business-User-Curriculum--Streamline-Flex">
  <desc>
    Business User Curriculum Streamline Icon: https://streamlinehq.com
  </desc>
  <g id="business-user-curriculum">
    <path id="Intersect" stroke="#ffffff" stroke-linecap="round" stroke-linejoin="round" d="M6.96 6.58652C6.96 6 6.20047 5.54639 5.35023 5.54639c-0.85023 0 -1.61 0.45361 -1.61 1.04013" stroke-width="1"></path>
    <path id="Vector" stroke="#ffffff" stroke-linecap="round" stroke-linejoin="round" d="M5.3501 5.54639c0.69035 0 1.25 -0.55965 1.25 -1.25 0 -0.69036 -0.55965 -1.25 -1.25 -1.25 -0.69036 0 -1.25 0.55964 -1.25 1.25 0 0.69035 0.55964 1.25 1.25 1.25Z" stroke-width="1"></path>
    <path id="Vector 454" stroke="#ffffff" stroke-linecap="round" stroke-linejoin="round" d="M3.61719 8.76367h5.96378" stroke-width="1"></path>
    <path id="Vector 455" stroke="#ffffff" stroke-linecap="round" stroke-linejoin="round" d="M3.61719 10.8325h3.96378" stroke-width="1"></path>
    <path id="Subtract" stroke="#ffffff" stroke-linecap="round" stroke-linejoin="round" d="M12.3656 11.563c0.088 -1.4708 0.1344 -2.99746 0.1344 -4.563 0 -0.45355 -0.0039 -0.90383 -0.0116 -1.35044 -0.0125 -0.73278 -0.2316 -1.45007 -0.6547 -2.0485 -0.7533 -1.06551 -1.4193 -1.79887 -2.44098 -2.654902C9.0668 0.67309 8.65554 0.523145 8.23046 0.513432 7.84056 0.504523 7.43368 0.5 7 0.5 5.64229 0.5 4.54722 0.544328 3.4138 0.628791c-0.96282 0.07175 -1.72171 0.844409 -1.7794 1.808179C1.54636 3.90785 1.5 5.43445 1.5 7c0 1.56554 0.04636 3.0921 0.1344 4.563 0.05769 0.9638 0.81658 1.7365 1.7794 1.8082C4.54722 13.4557 5.64229 13.5 7 13.5s2.45278 -0.0443 3.5862 -0.1288c0.9628 -0.0717 1.7217 -0.8444 1.7794 -1.8082Z" stroke-width="1"></path>
  </g>
</svg>