<svg xmlns="http://www.w3.org/2000/svg" viewBox="0 0 48 48" version="1.1">
  <path d="M35.64 0.529872C34.89768 0.6594720000000001 34.338768 1.063344 33.99552 1.718208C33.916560000000004 1.868784 33.360288 3.2447999999999997 32.759280000000004 4.776C32.158272000000004 6.307200000000001 31.642560000000003 7.583952 31.61328 7.6132800000000005C31.583952 7.6425600000000005 30.307199999999998 8.158272 28.776 8.75928C27.2448 9.360288 25.868784 9.91656 25.718208000000004 9.99552C24.943727999999997 10.401456 24.517344 11.113248 24.517344 12C24.517344 12.886752 24.943727999999997 13.598544 25.718208000000004 14.00448C25.868784 14.08344 27.2448 14.639712000000001 28.776 15.24072C30.307199999999998 15.841728 31.583952 16.35744 31.61328 16.38672C31.642560000000003 16.416048 32.158272000000004 17.692800000000002 32.759280000000004 19.224C33.360288 20.7552 33.916560000000004 22.131216000000002 33.99552 22.281792C34.401456 23.056272 35.113248 23.482656 36 23.482656C36.8868 23.482656 37.598736 23.056128 38.004384 22.281792C38.083296000000004 22.131216000000002 38.639520000000005 20.7552 39.24048 19.224C39.84144 17.692800000000002 40.357152 16.415952 40.386576 16.386576C40.415952000000004 16.357152 41.692800000000005 15.841439999999999 43.224000000000004 15.24048C44.7552 14.639520000000001 46.131216 14.083295999999999 46.281791999999996 14.004384C47.056128 13.598736 47.482656 12.886800000000001 47.482656 12C47.482656 11.113248 47.05627200000001 10.401456 46.281791999999996 9.99552C46.131216 9.91656 44.7552 9.360288 43.224000000000004 8.75928C41.692800000000005 8.158272 40.415952000000004 7.6425600000000005 40.386576 7.6132800000000005C40.357152 7.583952 39.84144 6.307200000000001 39.24048 4.776C38.10408 1.880544 37.967808 1.569216 37.699056000000006 1.255248C37.238688 0.717408 36.352992 0.40536 35.64 0.529872M35.212320000000005 6.78C34.259808 9.206736 34.154976 9.429024 33.792 9.792C33.429024 10.154976000000001 33.206736 10.259808000000001 30.78 11.21232C29.717375999999998 11.62944 28.848 11.983872 28.848 12C28.848 12.016128 29.717375999999998 12.370560000000001 30.78 12.787680000000002C33.192336 13.734528000000001 33.444816 13.853136000000001 33.795840000000005 14.204160000000002C34.146864 14.555184 34.265472 14.807664 35.212320000000005 17.22C35.62944 18.282576 35.983872 19.152 36 19.152C36.016128 19.152 36.370560000000005 18.282576 36.78768 17.22C37.734528 14.807664 37.853136 14.555184 38.20416 14.204160000000002C38.555184 13.853136000000001 38.807664 13.734528000000001 41.22 12.787680000000002C42.282624000000006 12.370560000000001 43.152 12.016128 43.152 12C43.152 11.983872 42.282624000000006 11.62944 41.22 11.21232C38.807664 10.265472 38.555184 10.146864 38.20416 9.79584C37.853136 9.444816 37.734528 9.192336000000001 36.78768 6.78C36.370560000000005 5.717376 36.016128 4.848 36 4.848C35.983872 4.848 35.62944 5.717376 35.212320000000005 6.78M10.056000000000001 7.5181439999999995C9.151824000000001 7.623311999999999 8.504256 7.862832 7.834704000000001 8.339712C7.399871999999999 8.64936 6.979392 9.087504000000001 6.694224 9.528C6.376416000000001 10.018896 0.66648 20.444832 0.511728 20.816832C0.27849599999999997 21.377472 0.21825599999999998 21.719136000000002 0.217104 22.488C0.21624 23.042736 0.237072 23.290656 0.30792 23.568C0.469728 24.20184 0.728208 24.746256000000002 1.10232 25.240944C1.379472 25.607472 21.576672000000002 46.652832 21.874992 46.885968000000005C22.532736 47.4 23.099136 47.586816000000006 24 47.586816000000006C24.901152 47.586816000000006 25.468512000000004 47.399616 26.124288 46.885968000000005C26.422320000000003 46.652544 46.540176 25.694688000000003 46.875840000000004 25.26792C47.31048 24.715392 47.648688 23.920704 47.763984 23.180976C47.833248 22.736736 47.795088 21.820944 47.691072 21.432000000000002C47.561616 20.947872 47.429184 20.656464 46.851696000000004 19.584672C46.207152 18.388464000000003 45.956016000000005 18.080160000000003 45.51048 17.93808C45.21408 17.843616 44.80392 17.831808 44.542176 17.91024C44.092608 18.044928 43.634352 18.55824 43.53456 19.038864C43.430592 19.539744 43.482576 19.700112 44.146032 20.925648000000002C44.731824 22.007712 44.75184 22.054368 44.772912 22.385712C44.798496 22.788528000000003 44.73792 23.048256000000002 44.556144 23.315136000000003C44.483472 23.421888000000003 40.772736 27.318624000000003 36.31008 31.974576C31.847424000000004 36.630576 28.052064 40.5912 27.875856 40.776L27.555552 41.112 27.645408000000003 40.872C27.694848 40.74 28.781855999999998 37.9212 30.061056000000004 34.608000000000004C31.340256 31.294800000000002 32.413776000000006 28.501008 32.446608 28.399632C32.480112 28.296288 32.498064 28.074768 32.487504 27.895632C32.455776 27.357792 32.158464 26.910672 31.658784 26.649264C31.452527999999997 26.541408 31.354656 26.522112 31.008 26.521152C30.671760000000003 26.520192 30.558432 26.540448 30.363696 26.636304C30.03792 26.796624 29.773296000000002 27.07656 29.617536 27.425520000000002C29.545247999999997 27.587472 28.258656 30.900624 26.758368 34.788000000000004C25.258128000000003 38.675376 24.016656 41.856 23.99952 41.856C23.982384 41.856 22.468896 37.97568 20.636208 33.233088C18.803472 28.490448000000004 17.297040000000003 24.592368 17.288544 24.570672000000002C17.280048 24.548976 19.645728000000002 24.525072 22.5456 24.517632L27.818112 24.504 28.139808 24.3456C28.670304 24.084384 28.947504 23.669904 28.980816000000004 23.088C28.997135999999998 22.802352 28.980432 22.672464 28.899888 22.459104C28.779024 22.1388 28.464432000000002 21.800064 28.138992000000002 21.639792L27.912 21.528 22.486848000000002 21.504L17.061696 21.48 18.388272 16.008L19.714896 10.536 20.549424000000002 10.511424C21.308400000000002 10.489056 21.405648000000003 10.47624 21.622752 10.36992C21.927456 10.220736 22.220976 9.927071999999999 22.369680000000002 9.622752C22.53576 9.28272 22.53576 8.71728 22.369680000000002 8.377248C22.221168 8.073264 21.92784 7.779599999999999 21.622752 7.629504000000001L21.384 7.5120000000000005 15.792 7.50672C12.7164 7.503792000000001 10.135200000000001 7.5089760000000005 10.056000000000001 7.5181439999999995M9.951936 10.600848000000001C9.66936 10.698528 9.412320000000001 10.87968 9.267168 11.083536C9.179088 11.207232000000001 3.552 21.452688 3.552 21.48936C3.552 21.497424 5.8956 21.504 8.76 21.504C11.624400000000001 21.504 13.968 21.49248 13.968 21.478416C13.968 21.464351999999998 14.562000000000001 19.000512 15.288 16.0032C16.014 13.005936 16.608 10.544208 16.608 10.532784C16.608 10.52136 15.166176 10.51272 13.404 10.513584C10.455168 10.515024 10.180223999999999 10.521984 9.951936 10.600848000000001M5.022144 25.02C5.288592 25.290624 8.741760000000001 28.8924 12.695856000000001 33.024C16.649952000000003 37.1556 20.012016 40.665600000000005 20.167104000000002 40.824L20.449056 41.112 20.207856 40.488C20.075232 40.144800000000004 18.63408 36.413376 17.005296 32.196L14.043936 24.528000000000002 9.290832 24.528000000000002L4.537728 24.528000000000002 5.022144 25.02" stroke="none" fill="#FFF" fill-rule="evenodd" stroke-width="0.048"></path>
</svg>