<svg xmlns="http://www.w3.org/2000/svg" viewBox="0 0 48 48" version="1.1">
  <path d="M35.918112 0.6466080000000001C35.343551999999995 0.8083680000000001 34.869168 1.111248 34.557263999999996 1.515504C34.449072 1.6558080000000002 33.8844 2.6412 33.302496000000005 3.705264C32.720591999999996 4.769376 32.167007999999996 5.7588 32.072304 5.904C31.867776000000003 6.217632 31.263648000000003 6.8352 30.96 7.041023999999999C30.8412 7.121568000000001 29.849472000000002 7.676640000000001 28.756176 8.274528C27.662879999999998 8.872416000000001 26.662560000000003 9.442224 26.533296000000004 9.540816C26.092176 9.877104 25.727856 10.469904 25.626672000000003 11.016C25.453487999999997 11.950848 25.818095999999997 12.910368 26.55696 13.464C26.733120000000003 13.596 27.691824 14.1468 28.68744 14.688C30.796752 15.834576 31.112496 16.03056 31.540944 16.459056C31.96944 16.887504 32.165424 17.203248000000002 33.312 19.31256C33.8532 20.308176 34.404 21.26688 34.536 21.44304C34.803216 21.799680000000002 35.2068 22.102368000000002 35.64768 22.276752C36.023136 22.425312 36.894528 22.439040000000002 37.287456 22.302672C37.66224 22.172591999999998 38.212944 21.784656 38.439216 21.491424000000002C38.54712000000001 21.351504 39.125280000000004 20.341296 39.723984 19.246512C40.322688 18.151728000000002 40.878144000000006 17.158800000000003 40.958304 17.04C41.217888 16.655328 41.859216 16.062144 42.29016 15.808079999999999C42.513360000000006 15.676512 43.480656 15.141024 44.439648000000005 14.618112C45.39864 14.095199999999998 46.309104000000005 13.572816 46.462848 13.457232C46.788047999999996 13.212768 47.134368 12.731808 47.287584 12.312C47.369616 12.087216 47.393328000000004 11.913408 47.395632 11.52C47.400144000000004 10.767264 47.208288 10.283664 46.694304 9.752112C46.419264 9.467664 46.393727999999996 9.452304 44.184672 8.242992000000001C43.129056000000006 7.665071999999999 42.135456 7.099296 41.976672 6.985632C41.644416 6.747744 41.176848 6.271104 40.950816 5.939856C40.865232000000006 5.814336 40.325184 4.853136 39.750768 3.803856C39.176304 2.754528 38.650896 1.8096 38.583168 1.704C38.309232 1.276992 37.817664 0.893568 37.316112 0.715632C36.944112 0.583632 36.261408 0.5499360000000001 35.918112 0.6466080000000001M36.46392 4.212C36.451968 4.231776 36.081408 4.9068 35.640480000000004 5.712C35.199552 6.517200000000001 34.724064 7.3488 34.583904000000004 7.5600000000000005C34.046352 8.369856 33.358368 9.058128 32.564976 9.57984C32.2632 9.77832 29.99616 11.050416 29.269104000000002 11.429328C29.139648 11.496768 29.155344000000003 11.506944 30.661104 12.330336C31.498704 12.788400000000001 32.346000000000004 13.271952 32.544000000000004 13.404912000000001C33.364703999999996 13.955952000000002 34.044048 14.635296 34.595088 15.456C34.728048 15.654 35.211504 16.501104 35.669376 17.338416C36.128976 18.178848 36.515664 18.834672 36.532560000000004 18.802416C36.904176 18.093936 38.273088 15.643008000000002 38.415072 15.432C38.992176 14.574384 39.7032 13.880111999999999 40.573776 13.324176C40.72651200000001 13.226591999999998 41.504112 12.7896 42.301776000000004 12.352992C43.099392 11.916384 43.76952 11.54256 43.790976 11.522208C43.812384 11.501904 43.185984 11.133984 42.398976000000005 10.704576C40.5072 9.672431999999999 40.002144 9.336864 39.33264 8.66736C38.663328 7.998096 38.32752 7.492704000000001 37.297056000000005 5.604C36.86856 4.818576 36.510672 4.176 36.501792 4.176C36.492912000000004 4.176 36.475872 4.1922239999999995 36.46392 4.212M14.617728 10.562928000000001C13.488576 10.737216 12.549936 11.460048 12.045696 12.543456C11.864112 12.933648000000002 11.768208 13.31496 11.711616 13.872C11.435664 16.588128 11.438880000000001 41.378304 11.7156 44.160000000000004C11.868624 45.698592 12.765408 46.890912 14.08248 47.306976C14.842608 47.54712000000001 16.950912 47.572752 17.784 47.351952000000004C18.322896 47.209152 18.759263999999998 46.95456 19.180608 46.537056C19.77504 45.948048 20.117136000000002 45.286848 20.25072 44.46864C20.422176 43.418736 20.513712 36.301968 20.481264 26.544C20.448240000000002 16.615392 20.383152 13.901904 20.158944 13.105968C19.817376000000003 11.893296 18.951408 10.989792000000001 17.807664 10.652832C17.483520000000002 10.557312 17.322384 10.545456 16.176000000000002 10.532784C15.476400000000002 10.525056 14.775167999999999 10.538592 14.617728 10.562928000000001M15.319728 13.529184C14.884079999999999 13.567295999999999 14.759184000000001 13.679856000000001 14.714736 14.074416C14.516112 15.837936000000001 14.43624 33.128784 14.593872 40.248C14.680512 44.161056 14.699136000000001 44.347488 15.012863999999999 44.435328C15.085008 44.455487999999995 15.559344000000001 44.472 16.066944 44.472L16.989888 44.472 17.112672 44.349168000000006C17.204016 44.257824 17.246928 44.146992000000004 17.279952 43.917168000000004C17.3844 43.190496 17.436768 39.419904 17.458896 31.032C17.481312000000003 22.538016 17.443056 17.773632 17.329871999999998 14.969280000000001C17.286336000000002 13.89096 17.246544 13.693920000000002 17.05152 13.590624C16.940784 13.531968 15.764832000000002 13.490256000000002 15.319728 13.529184M26.184 17.519280000000002C25.42152 17.571744 24.989424000000003 17.696592 24.45408 18.019056C23.605104 18.530496000000003 22.984752 19.38456 22.752768 20.36136C22.592208 21.03744 22.555152 22.224768 22.526976 27.594816C22.500672 32.608655999999996 22.550688 36.190031999999995 22.659744 37.104C22.778784 38.101632 23.150208 38.85552 23.846064000000002 39.511968C24.633456 40.25472 25.444176 40.511712 27 40.511712C28.555824 40.511712 29.366544 40.25472 30.153936 39.511968C30.849791999999997 38.85552 31.221216000000002 38.101632 31.340256 37.104C31.449312 36.190031999999995 31.499375999999998 32.609136 31.472832 27.61824C31.438752000000004 21.205920000000003 31.408608 20.634528000000003 31.059312 19.77624C30.600528 18.648864 29.522736000000002 17.775408000000002 28.344 17.575728C27.933408000000004 17.506176 26.803344000000003 17.476608 26.184 17.519280000000002M26.160672 20.542752C25.95408 20.594304 25.748399999999997 20.816976 25.684608 21.058128C25.62024 21.301728 25.545936 23.792064 25.510223999999997 26.904C25.48128 29.428848000000002 25.553232 35.253744 25.627056000000003 36.361488C25.696032 37.396416 25.807679999999998 37.488 27 37.488C28.193232000000002 37.488 28.306992 37.394496000000004 28.372608 36.36C28.468176 34.85328 28.51944 28.935600000000004 28.465728 25.615632C28.402320000000003 21.697824 28.374336 21.101760000000002 28.243344 20.878032C28.05 20.547792 27.967056000000003 20.521056 27.104496 20.510544C26.67744 20.505312 26.252688000000003 20.519808 26.160672 20.542752M3.864 21.534048C3.8112000000000004 21.544416 3.6492000000000004 21.57648 3.504 21.605232C2.427648 21.818496000000003 1.409376 22.640544000000002 0.933168 23.680752C0.570144 24.473664 0.51264 25.33752 0.51264 30C0.51264 33.696288 0.5616 35.06904 0.714624 35.666399999999996C1.0545120000000001 36.993024 1.9967519999999999 37.967040000000004 3.317136 38.35656C3.623232 38.446848 3.824304 38.46432 4.779984 38.483568C5.476752 38.497584 6.017040000000001 38.485872 6.235824000000001 38.451888000000004C7.8198240000000006 38.206128 9.038688 37.014288 9.332304 35.424C9.560352 34.188816 9.560352 25.811183999999997 9.332304 24.576C9.042432 23.005968 7.831248 21.805728000000002 6.283248 21.554592C5.997216 21.508176 4.078128 21.491856000000002 3.864 21.534048M40.584 23.056224C40.15824 23.197344 39.827664000000006 23.466576 39.631584000000004 23.832L39.528528 24.024 39.496608 30.696C39.466512 36.979632 39.400128 41.654784 39.316992000000006 43.344C39.276288 44.171136 39.215808 44.371296 38.987136 44.435328C38.914992000000005 44.455487999999995 38.440656 44.472 37.933056 44.472L37.010112 44.472 36.887328000000004 44.349168000000006C36.795936 44.257776 36.75312 44.147135999999996 36.720144000000005 43.917168000000004C36.627792 43.27296 36.562608000000004 39.490512 36.531216 32.952C36.503712 27.218544 36.48816 26.157024 36.42936 26.007456C36.25104 25.553520000000002 35.836128 25.166976000000002 35.401776000000005 25.05C35.114688 24.97272 34.621007999999996 25.016688000000002 34.36224 25.142639999999997C34.083264 25.278336 33.774912 25.586976 33.635424 25.87008L33.528 26.088 33.512928 30.312C33.490752 36.523968 33.609072 43.610064 33.74928 44.46864C33.88296 45.287376 34.225152 45.948575999999996 34.819392 46.536432000000005C35.243136 46.955664000000006 35.691216000000004 47.217888 36.216 47.353728C37.061952000000005 47.572752 39.160128 47.546256 39.91752 47.306976C40.965551999999995 46.975872 41.781791999999996 46.114752 42.136176 44.966304C42.279216 44.502864 42.328032 43.888416 42.385392 41.832C42.454944 39.338208 42.51912 29.360736000000003 42.484368 26.448C42.456095999999995 24.078864 42.455664000000006 24.071376 42.343968000000004 23.856C42.184416 23.548368 41.881152 23.254656 41.596752 23.132304C41.299056 23.00424 40.844064 22.970064 40.584 23.056224M3.984 24.610512000000003C3.874224 24.666384 3.778704 24.771024 3.7083839999999997 24.912624C3.608064 25.11456 3.597552 25.226688000000003 3.553008 26.568624000000003C3.49176 28.412064 3.49176 31.587936 3.553008 33.431376C3.622368 35.521152 3.594528 35.483328 5.048640000000001 35.461487999999996C6.056688 35.44632 6.129504 35.423808 6.303840000000001 35.07312C6.430704 34.817952000000005 6.476592 33.470208 6.476592 30C6.476592 26.529791999999997 6.430704 25.182047999999998 6.303840000000001 24.926879999999997C6.129504 24.576192000000002 6.056688 24.55368 5.048640000000001 24.538512C4.2664800000000005 24.5268 4.1305439999999995 24.535968 3.984 24.610512000000003" stroke="none" fill="#FFF" fill-rule="evenodd" stroke-width="0.048"></path>
</svg>