<svg xmlns="http://www.w3.org/2000/svg" viewBox="0 0 48 48" version="1.1">
  <path d="M14.76 1.519584C12.722591999999999 1.683648 10.984176 2.726016 9.809616 4.488C8.535648 6.399071999999999 8.161200000000001 8.977008 8.817312 11.319552000000002C8.856672000000001 11.460096 8.881104 11.582880000000001 8.871599999999999 11.592384000000001C8.862096000000001 11.601936 8.206704 11.62344 7.415136 11.640191999999999C5.033664 11.690688000000002 4.494192 11.76408 3.722592 12.142464C2.143776 12.916800000000002 1.51896 14.290272 1.516512 16.992C1.515552 18.051168 1.584624 18.667728 1.7988959999999998 19.512336C2.109648 20.73744 2.886096 21.563807999999998 4.185168 22.052112L4.488 22.16592 4.5168 28.90296C4.544112 35.283984 4.559472 36.059088 4.705824 38.424C4.876944 41.190672 5.085792 42.079248 5.822640000000001 43.176C6.923664 44.814912 8.5332 45.79872 10.488 46.02768C11.464704000000001 46.142064 14.716415999999999 46.320384000000004 17.712 46.423872C19.947264 46.501104000000005 28.052736000000003 46.501104000000005 30.288 46.423872C33.283584000000005 46.320384000000004 36.535296 46.142064 37.512 46.02768C39.4668 45.79872 41.076336 44.814912 42.17736 43.176C42.914208 42.079248 43.123056000000005 41.190672 43.294176 38.424C43.440528 36.059088 43.455888 35.283984 43.4832 28.90296L43.512 22.16592 43.814832 22.052112C45.442896 21.440160000000002 46.122096 20.479056 46.424112 18.36C46.502304 17.811216 46.502159999999996 16.189248 46.423872 15.624C46.344528 15.051024 46.159248 14.282928 46.014336 13.926336000000001C45.581088 12.860111999999999 44.569824000000004 12.076608 43.272 11.801568000000001C42.924 11.727792 42.480576 11.700000000000001 40.992 11.658432C39.9756 11.630064 39.13776 11.60088 39.13008 11.593536C39.122448000000006 11.586192 39.159743999999996 11.410032000000001 39.212928000000005 11.202096000000001C39.816048 8.84568 39.437136 6.357792000000001 38.190432 4.488C37.56456 3.5493599999999996 36.813696 2.842992 35.88 2.31456C33.69096 1.075584 30.875904000000002 1.2627840000000001 28.464000000000002 2.80776C27.574656 3.377424 26.626320000000003 4.226592 25.837007999999997 5.16C25.414944 5.659152 24.548640000000002 6.921936 24.216 7.522896C24.110400000000002 7.713696 24.013199999999998 7.869792 24 7.869792C23.986800000000002 7.869792 23.8896 7.713696 23.784 7.522896C23.6784 7.332096000000001 23.361792 6.830400000000001 23.080416 6.408C20.86272 3.0786240000000005 17.793456 1.27536 14.76 1.519584M14.52 4.5830400000000004C13.8336 4.734144 13.27488 5.060976 12.751104000000002 5.6177280000000005C12.212544 6.190224 11.879904 6.813504000000001 11.655984 7.669632C11.509056 8.231376 11.494848000000001 9.613392 11.630256 10.171296C11.734944 10.602816 11.904384 11.09568 12.03648 11.353152L12.134400000000001 11.544 16.807199999999998 11.530175999999999C19.377264 11.522592 21.647952 11.503536 21.853248 11.487888C22.29192 11.454384000000001 22.2864 11.557344 21.901680000000002 10.584C21.506591999999998 9.584352 21.168672 8.94504 20.545872 8.018784C19.478352 6.431136 18.060624 5.2211039999999995 16.74288 4.772928C16.001424 4.520736 15.138048 4.44696 14.52 4.5830400000000004M31.95 4.58352C30.814704 4.819632 29.761104000000003 5.4288 28.767936 6.4232640000000005C27.637487999999998 7.5552 26.746655999999998 8.943696000000001 26.09832 10.584C25.713600000000003 11.557344 25.708080000000002 11.454384000000001 26.146752000000003 11.487888C26.352048 11.503536 28.622736 11.522592 31.192800000000002 11.530175999999999L35.8656 11.544 35.96448 11.352C36.5712 10.174176 36.644976 8.309520000000001 36.136368000000004 7.008C35.837328 6.242832 35.168832 5.408352000000001 34.54368 5.019888C34.000272 4.682208 33.543648000000005 4.54992 32.856 4.530864C32.482512 4.520544 32.163984 4.539024 31.95 4.58352M16.632 14.524655999999998C13.979184 14.546256000000001 7.770672 14.643552000000001 6.497039999999999 14.683488C5.372736000000001 14.71872 5.330208000000001 14.723664 5.0745119999999995 14.848752C4.897152 14.935535999999999 4.7940000000000005 15.020591999999999 4.759152 15.108863999999999C4.443936 15.90672 4.458576 18.298224 4.782528 18.924623999999998C4.91376 19.1784 5.1976320000000005 19.259664 6.096 19.300752C11.06424 19.527744 36.93576 19.527744 41.904 19.300752C42.802368 19.259664 43.086240000000004 19.1784 43.217472 18.924623999999998C43.376496 18.617088 43.460736000000004 17.960688 43.462416 17.016000000000002C43.464 16.116768 43.424016 15.7428 43.271328 15.228672000000001C43.203552 15.000432000000002 43.178208000000005 14.9724 42.930528 14.851248C42.667824 14.722704 42.64032 14.719632 41.407488 14.682048C37.570704 14.564976000000001 23.024544 14.472576 16.632 14.524655999999998M7.502928000000001 28.420800000000003C7.5181439999999995 31.75776 7.552848 35.0064 7.5800160000000005 35.64C7.6922880000000005 38.254128 7.831200000000001 40.138704 7.944672000000001 40.586639999999996C8.262528 41.841456 9.317184000000001 42.788688 10.634016 43.002096C11.690544000000001 43.173311999999996 16.496064 43.397952000000004 20.652 43.470432L22.512 43.502832 22.512 33.00744L22.512 22.512 20.796 22.510800000000003C18.562608 22.509263999999998 11.02272 22.429968 9.029615999999999 22.387056L7.475280000000001 22.353648 7.502928000000001 28.420800000000003M36.84 22.417824C35.784 22.436112 32.797824 22.467696 30.204 22.487952L25.488 22.524816 25.488 33.013824L25.488 43.502832 27.348 43.470432C31.503936 43.397952000000004 36.309456000000004 43.173311999999996 37.365984 43.002096C38.427792 42.830016 39.34464 42.175824 39.785328 41.275824C40.052544 40.730064 40.115472000000004 40.449552 40.198512 39.43464C40.41984 36.72912 40.467456 34.973376 40.497168 28.428L40.524672 22.368000000000002 39.642336 22.376304C39.157056000000004 22.380864 37.896 22.399536 36.84 22.417824" stroke="none" fill="#FFF" fill-rule="evenodd" stroke-width="0.048"></path>
</svg>