<svg xmlns="http://www.w3.org/2000/svg" viewBox="0 0 48 48" version="1.1">
  <path d="M35.088 0.5276160000000001C32.004864000000005 0.7728 29.152272000000004 2.260896 27.128304 4.68C26.3688 5.587728 25.610016 6.908832 25.181856 8.068848000000001C24.66168 9.478223999999999 24.41664 11.213616 24.52344 12.732000000000001C24.637536 14.354256000000001 24.971856 15.608208 25.679088 17.066496C27.185807999999998 20.173488 30.105936 22.474032 33.504 23.231184C35.071536 23.58048 36.928464 23.58048 38.496 23.231184C41.376335999999995 22.589376 43.849536 20.89704 45.552432 18.402672000000003C46.329168 17.26488 46.921248 15.887088 47.231184 14.496C47.579616 12.932400000000001 47.579616 11.0676 47.231184 9.504C46.262496 5.156496000000001 42.84072 1.7348160000000001 38.496 0.769008C37.48008 0.543216 36.111360000000005 0.44625600000000004 35.088 0.5276160000000001M35.4 3.5316C33.224351999999996 3.737376 31.4688 4.542528 30.005664000000003 6.0056639999999994C28.694736000000002 7.316592 27.884352 8.928288 27.59496 10.8C27.560256000000003 11.0244 27.531888000000002 11.564400000000001 27.531888000000002 12C27.531888000000002 12.841392 27.588288 13.327248 27.771408 14.064C28.36728 16.46136 30.003264 18.492672000000002 32.225328 19.594272C33.460080000000005 20.206368 34.59072 20.468111999999998 36 20.468111999999998C37.396848 20.468111999999998 38.566224 20.199504 39.743520000000004 19.60824C41.484048 18.734064 42.734064000000004 17.484047999999998 43.60824 15.74352C44.199504 14.566224000000002 44.468112 13.396848 44.468112 12C44.468112 11.158608000000001 44.411712 10.672752 44.228592 9.936C43.63272 7.538640000000001 41.996736 5.507328 39.774672 4.405728C38.972352 4.008 38.212032 3.762576 37.344 3.6212159999999995C36.927312 3.553296 35.746032 3.498864 35.4 3.5316M35.57376 5.0924640000000005C35.187312 5.2104 34.745183999999995 5.620416 34.607424 5.988576C34.515888000000004 6.2331840000000005 34.512 6.367248000000001 34.512 9.264C34.512 12.22128 34.514112 12.290208 34.613664 12.562176C34.708896 12.822287999999999 34.84584 12.970464000000002 36.761664 14.886336C38.699328 16.824 38.823312 16.938288 39.096000000000004 17.03904C40.306464 17.486352 41.488128 16.304208 41.038224 15.096C40.937808 14.826287999999998 40.821791999999995 14.698272000000001 39.209472000000005 13.077984L37.488 11.34792 37.488 8.79576C37.488 6.366288 37.483392 6.23136 37.392576 5.988576C37.282944 5.695536 36.953952 5.346528 36.630816 5.180448C36.391487999999995 5.057424 35.839248 5.01144 35.57376 5.0924640000000005M17.688 6.510816C13.542816 6.560447999999999 7.575024 6.788304 6.524496 6.937008C3.7050240000000003 7.336032 1.459776 9.445824 0.94032 12.184368000000001C0.746016 13.208687999999999 0.56088 16.732464 0.50112 20.544C0.44745599999999996 23.965728000000002 0.620688 29.064767999999997 0.868896 31.368000000000002C1.030416 32.867232 1.67112 34.21968 2.710656 35.256C3.723552 36.265776 4.877424 36.851904000000005 6.297840000000001 37.078224C7.0173119999999995 37.192848 10.788576 37.365648 13.68 37.416432C14.5116 37.431072 15.410304 37.454976 15.677136 37.469664L16.162319999999998 37.496304 15.986736 38.357472C15.834096 39.106032 15.794064 39.235776 15.680591999999999 39.349344L15.550032 39.480000000000004 14.098991999999999 39.509088C12.988128000000001 39.531312 12.586128 39.555936 12.384 39.614112C11.471904 39.876672 10.776048000000001 40.289616 10.17312 40.92624C9.632592 41.496912 9.293184 42.118272000000005 9.091056 42.907247999999996C8.72856 44.322192 9.026159999999999 45.514176 9.980016 46.467936C10.556064000000001 47.043936 11.218416000000001 47.371152 12.008784 47.470272C12.555792 47.538864000000004 29.444208000000003 47.538864000000004 29.991216 47.470272C31.599120000000003 47.268624 32.825904 46.022064 33.033456 44.37912C33.101904000000005 43.836864000000006 33.019584 43.229232 32.779392 42.505008C32.339376 41.177952000000005 31.194768 40.093584 29.784 39.667248C29.367456 39.541344 29.300208 39.53568 27.904943999999997 39.508320000000005C26.07696 39.47256 26.249328 39.580128 25.9944 38.315904C25.905264 37.873776 25.838736 37.505520000000004 25.84656 37.497600000000006C25.86096 37.483008 26.036544 37.477728 29.400000000000002 37.389984C31.266864 37.341312 34.069152 37.227024 34.752 37.17168C37.799376 36.924768 40.262112 34.806864000000004 40.942416 31.848C40.990992000000006 31.6368 41.054159999999996 31.237199999999998 41.082768 30.96C41.205744 29.769888 41.375616 27.235392 41.375856 26.58768C41.376 26.170464 41.362272000000004 26.099904000000002 41.229744 25.834656C41.072256 25.519488 40.868064000000004 25.311936 40.546656 25.140432C40.256784 24.985727999999998 39.52296 24.983183999999998 39.24 25.13592C38.876208000000005 25.33224 38.545296 25.732896 38.453568 26.088C38.426304 26.193600000000004 38.370144 26.8092 38.328768 27.456C38.112048 30.843840000000004 38.033088 31.412544 37.683071999999996 32.105904C37.342176 32.781216 36.631632 33.465408000000004 35.928 33.795840000000005C35.229984 34.12368 34.917840000000005 34.167120000000004 32.52 34.270320000000005C25.238064 34.583712000000006 15.68112 34.564704 8.424 34.222416C6.461712 34.129872 6.0292319999999995 34.028112 5.2491840000000005 33.47544C4.635744 33.040800000000004 4.142736 32.326848 3.959568 31.608C3.811488 31.02672 3.637248 28.343472000000002 3.546576 25.248C3.415104 20.7588 3.646608 13.668912 3.964608 12.44544C4.093056000000001 11.951424 4.363056 11.47992 4.752 11.070576C5.325744 10.466688000000001 5.841744 10.162752 6.6000000000000005 9.981984C7.372368000000001 9.797808 12.90168 9.583344 18.696 9.512736L21.384 9.48 21.658752 9.345072C22.837392 8.766288 22.760016 7.137168 21.528 6.591408C21.360528000000002 6.517200000000001 21.170352 6.5058240000000005 20.04 6.502224C19.327199999999998 6.499968 18.268800000000002 6.503808 17.688 6.510816M19.225392 37.548C19.214592 37.581024 19.09704 38.150976 18.964224 38.814575999999995C18.831408000000003 39.478224 18.677664 40.141487999999995 18.622656 40.288560000000004C18.36576 40.9752 17.682624 41.733792 17.002512 42.0876C16.308576 42.448656 16.094160000000002 42.485664 14.544 42.511968C12.952895999999999 42.538944 12.851904 42.55848 12.46176 42.915072C12.169488000000001 43.18224 12.006 43.506864 11.965344 43.900800000000004C11.940144 44.144592 11.946864 44.164464 12.108672 44.326272L12.278400000000001 44.496 21 44.496L29.721600000000002 44.496 29.884800000000002 44.3328C30.068784 44.148816000000004 30.084335999999997 44.036736000000005 29.98008 43.6452C29.893584 43.320192 29.756976 43.10376 29.490288 42.868992000000006C29.140031999999998 42.560688000000006 28.979088 42.528192000000004 27.795456 42.526752C26.093568 42.524736000000004 25.575984 42.434544 24.848784 42.013296000000004C24.450432000000003 41.782560000000004 23.778048 41.097072 23.577456 40.7172C23.336496 40.260912 23.256384 39.983472 23.015952000000002 38.772816000000006C22.893984000000003 38.15856 22.783248 37.618176 22.769856 37.572C22.747248000000003 37.494 22.620912 37.488 20.995248 37.488C19.637520000000002 37.488 19.240608 37.50144 19.225392 37.548" stroke="none" fill="#FFF" fill-rule="evenodd" stroke-width="0.048"></path>
</svg>