<svg xmlns="http://www.w3.org/2000/svg" viewBox="0 0 48 48" version="1.1">
  <path d="M36 0.548688C35.511120000000005 0.68472 35.076384000000004 1.00656 34.807296 1.431696C34.7292 1.555056 34.541712000000004 2.0016000000000003 34.390608 2.424C33.726432 4.280736 33.044256000000004 5.43408 31.924656 6.593280000000001C30.68088 7.881024 29.480159999999998 8.639376 27.592703999999998 9.329328C26.517791999999996 9.722256 26.445216000000002 9.757728 26.132016000000004 10.043951999999999C25.300800000000002 10.803647999999999 25.275456000000002 12.110016 26.076432 12.908928C26.367024 13.198800000000002 26.554223999999998 13.293552 27.552 13.656047999999998C29.351232000000003 14.309616000000002 30.437808 14.962608000000001 31.625472000000002 16.104C32.867472 17.297568 33.665088 18.571776 34.344816 20.448C34.706112 21.445248 34.800912000000004 21.632687999999998 35.091072 21.923568C35.889984 22.724544 37.196352 22.6992 37.956048 21.867984000000003C38.24227200000001 21.554784 38.277744 21.482208 38.670672 20.407296C39.36576 18.505824 40.128864 17.302272 41.429664 16.056C42.607488 14.927567999999999 43.71264 14.2752 45.576 13.608576000000001C45.9984 13.457472 46.444944 13.270128000000001 46.568304 13.192272C47.309664000000005 12.724416 47.66376 11.852112 47.44824 11.02464C47.35152 10.653312 47.232912 10.4328 46.976592 10.14768C46.698048 9.837888 46.463184 9.71424 45.476784 9.358128C43.583088000000004 8.674512 42.406368 7.9405920000000005 41.154816000000004 6.662544C39.973296000000005 5.4560640000000005 39.309504 4.36344 38.647152 2.534976C38.487552 2.094432 38.311727999999995 1.6452480000000003 38.256432000000004 1.5368160000000002C37.859424000000004 0.758592 36.843888 0.313872 36 0.548688M36.261504 5.7118079999999996C35.98368 6.249696 35.312016 7.266528 34.86624 7.824C34.44072 8.356176 33.349152000000004 9.448656 32.832 9.859968C32.27112 10.306080000000001 31.25376 10.977744 30.726336 11.250143999999999C30.485232000000003 11.374656 30.288 11.485968 30.288 11.497584C30.288 11.509152 30.42024 11.585376 30.581904 11.666976C32.031696000000004 12.398832000000002 33.543408 13.610496000000001 34.65048 14.928C35.33928 15.747743999999999 35.934528 16.62864 36.333024 17.418096000000002C36.414624 17.57976 36.490848 17.712 36.502416 17.712C36.514032 17.712 36.625344 17.514768 36.749856 17.273664C37.022976 16.744896 37.695071999999996 15.7272 38.140512 15.168000000000001C38.558352 14.643456 39.651456 13.550351999999998 40.176 13.132512C40.737696 12.685104 41.753664 12.014544 42.288192 11.738496L42.733056000000005 11.50872 42.474528 11.364672C41.630256 10.894176 41.398752 10.75368 40.940496 10.433568000000001C39.62736 9.516288 38.44416 8.32704 37.520976000000005 6.996528C37.242384 6.59496 37.094064 6.348624 36.635328 5.525472000000001L36.49128 5.266944 36.261504 5.7118079999999996M9.954768 6.528143999999999C7.41912 6.703392 5.267136 7.635936 3.5343839999999997 9.31032C1.8704640000000001 10.918175999999999 0.8703839999999999 12.974976000000002 0.56952 15.408C0.49425600000000003 16.016448 0.495024 17.554560000000002 0.570912 18.240000000000002C0.8508479999999999 20.76888 1.776336 23.52 3.273408 26.27328L3.6650400000000003 26.993616 3.5069280000000003 27.284784000000002C1.7871839999999999 30.451344000000002 0.8633280000000001 33.118128 0.570912 35.76C0.49411200000000005 36.453648 0.494832 37.984176 0.572304 38.616C0.7567200000000001 40.121088 1.269792 41.621184 2.0042400000000002 42.80256C2.769168 44.033088 3.9629280000000002 45.229536 5.176896 45.982464C8.99328 48.34944 14.285471999999999 47.930448000000005 20.134272 44.798256L20.996544 44.336496000000004 21.286272 44.493168000000004C22.14696 44.958624 23.489856 45.618 24.144000000000002 45.89644800000001C26.890992000000004 47.065584 29.599248 47.618352 31.876800000000003 47.47464C34.160496 47.330544 35.935776000000004 46.700208 37.608000000000004 45.439632C38.101487999999996 45.06768 39.067679999999996 44.101487999999996 39.439632 43.608000000000004C40.53336 42.157104000000004 41.1984 40.487184 41.427696 38.616C41.505168000000005 37.984176 41.505888 36.453648 41.429088 35.76C41.177952000000005 33.491376 40.41168 31.058352 39.169056000000005 28.584C38.562048 27.375360000000004 37.926048 26.276352 37.66896 25.991856C37.026576 25.281024 35.926512 25.35072 35.3604 26.138064C35.28528 26.24256 34.904688 26.814 34.51464 27.408C31.430016000000002 32.10528 26.498879999999996 37.088208 21.77712 40.279104000000004C21.355439999999998 40.564080000000004 20.986464 40.783632 20.957184 40.767024C20.689152 40.614576 19.447632 39.752496 18.790752 39.262704C15.162336 36.557136 11.442864 32.837664000000004 8.737295999999999 29.209248C8.049168 28.286352 7.232016000000001 27.087072 7.232016000000001 27C7.232016000000001 26.833104000000002 8.889168 24.533808 9.914016 23.278752C13.26528 19.174752 17.423952 15.443328 21.492096 12.890112C22.241808 12.419568 22.488432 12.055104 22.484112 11.424C22.479024 10.678464 22.207344000000003 10.358976 20.994432 9.672384000000001C16.924032 7.368192 13.189632 6.30456 9.954768 6.528143999999999M9.84 9.557808000000001C8.075520000000001 9.73536 6.594912000000001 10.458432 5.390928000000001 11.730624C3.349872 13.887264 2.966112 17.025503999999998 4.257359999999999 21C4.652928 22.217472 5.474064 24.117936 5.562480000000001 24.02064C5.5847999999999995 23.996112 5.78256 23.7276 6.00192 23.424C7.542624 21.291696 9.036096 19.566048 11.301072 17.301072C13.566047999999999 15.036096 15.291696 13.542624 17.424 12.00192C17.7276 11.78256 17.996112 11.5848 18.02064 11.562479999999999C18.072576 11.515296 17.094192 11.042112000000001 16.248 10.705104C13.899888 9.769968 11.68056 9.372624 9.84 9.557808000000001M20.04 20.570304C18.156864 20.849232 16.462896 21.96936 15.470352 23.592C13.588608 26.668176 14.53608 30.656256000000003 17.593872 32.530368C20.209392 34.133376 23.573664 33.706896 25.683072 31.504896C27.741072 29.356656 28.085664000000005 26.135664000000002 26.529648 23.592C25.180320000000002 21.386112 22.610448 20.189568 20.04 20.570304M20.231088 23.590560000000004C18.94752 23.870016 17.861712 24.963936 17.588448 26.252976C17.391696 27.181056 17.598192 28.236672000000002 18.119472 28.968C18.948048 30.130416 20.28912 30.681072 21.675168 30.428016000000003C23.004 30.185375999999998 24.185376 29.004 24.428016 27.675168000000003C24.494592 27.310464 24.494592 26.689536000000004 24.428016 26.324832C24.188688 25.014048 23.065872 23.868047999999998 21.747024 23.588448C21.357024 23.505792 20.615712000000002 23.506800000000002 20.231088 23.590560000000004M5.228208 30.555360000000004C4.057536 33.029136 3.441696 35.547168 3.5208960000000005 37.536C3.605424 39.659568 4.286976 41.236128 5.703024 42.58368C7.864368000000001 44.640432000000004 11.024112 45.034368 15 43.74264C16.217472 43.347072 18.117936 42.525936 18.02064 42.43752C17.996112 42.4152 17.7276 42.217439999999996 17.424 41.99808C15.291696 40.457376 13.566047999999999 38.96390400000001 11.301072 36.698928C9.036096 34.433952000000005 7.542624 32.708304 6.00192 30.576C5.78256 30.272399999999998 5.5847999999999995 30.003888 5.562480000000001 29.979360000000003C5.539248 29.953776 5.396448 30.199776000000004 5.228208 30.555360000000004M36.044736 30.514464C34.52208 32.630352 32.957664 34.440192 30.698928000000002 36.698928C28.45944 38.938416 26.773728 40.400112 24.660576 41.934912000000004C24.310464 42.189216 24.003888 42.41544 23.97936 42.437664000000005C23.88192 42.525888 25.783584 43.347408 27 43.74264C30.47352 44.871120000000005 33.276912 44.718912 35.436432 43.284624C36.044351999999996 42.880848 36.89592 42.022992 37.310256 41.396976C38.451648 39.672432 38.759375999999996 37.56936 38.254031999999995 34.947168000000005C37.989264 33.573071999999996 37.466928 32.024208 36.775872 30.564C36.616608 30.227376 36.477984 29.952 36.467904000000004 29.952C36.457776 29.952 36.267360000000004 30.205104000000002 36.044736 30.514464" stroke="none" fill="#FFF" fill-rule="evenodd" stroke-width="0.048"></path>
</svg>