<svg xmlns="http://www.w3.org/2000/svg" viewBox="0 0 48 48" version="1.1">
  <path d="M9.96 1.5376319999999999C8.375136 1.58616 6.7122720000000005 1.671936 6.211392 1.7310240000000001C5.61144 1.801776 5.108928000000001 1.9494719999999999 4.5840000000000005 2.209344C3.515616 2.7383040000000003 2.63208 3.644448 2.13432 4.721760000000001C1.724736 5.608176 1.647696 6.332447999999999 1.5314400000000001 10.38768C1.4648640000000002 12.708912 1.4803680000000001 13.281744 1.6180320000000001 13.589856000000001C1.7528160000000002 13.891488 2.0323200000000003 14.189376000000001 2.324976 14.343264C2.535936 14.45424 2.6249759999999998 14.471136000000001 3 14.471136000000001C3.3750240000000002 14.471136000000001 3.4640640000000005 14.45424 3.675024 14.343264C3.9661920000000004 14.190144 4.2456000000000005 13.893264 4.38408 13.589856000000001C4.472688 13.395743999999999 4.48704 13.262880000000001 4.498704 12.528C4.521408 11.098848 4.607616 8.37096 4.658688 7.464C4.729824 6.202032 4.851888000000001 5.817696 5.334768 5.334768C5.817696 4.851888000000001 6.202032 4.729824 7.464 4.658688C8.37096 4.607616 11.098848 4.521408 12.528 4.498704C13.262880000000001 4.48704 13.395743999999999 4.472688 13.589856000000001 4.38408C13.893264 4.2456000000000005 14.190144 3.9661920000000004 14.343264 3.675024C14.45424 3.4640640000000005 14.471136000000001 3.3750240000000002 14.471136000000001 3C14.471136000000001 2.6249759999999998 14.45424 2.535936 14.343264 2.324976C14.190576 2.034576 13.894272 1.755264 13.589856000000001 1.614768C13.385760000000001 1.5205440000000001 13.281504 1.511808 12.288 1.505856C11.694 1.5023039999999999 10.646400000000002 1.516608 9.96 1.5376319999999999M34.642464 1.540416C34.239984 1.6351680000000002 33.860784 1.936992 33.656736 2.324976C33.54576 2.535936 33.528864 2.6249759999999998 33.528864 3C33.528864 3.3750240000000002 33.54576 3.4640640000000005 33.656736 3.675024C33.809855999999996 3.9661920000000004 34.106736 4.2456000000000005 34.410144 4.38408C34.604256 4.472688 34.737120000000004 4.48704 35.472 4.498704C36.901152 4.521408 39.62904 4.607616 40.536 4.658688C41.797968000000004 4.729824 42.182304 4.851888000000001 42.665232 5.334768C43.148112 5.817696 43.270176 6.202032 43.341312 7.464C43.392384 8.37096 43.478592 11.098848 43.501296 12.528C43.51296 13.262880000000001 43.527312 13.395743999999999 43.61592 13.589856000000001C43.7544 13.893264 44.033808 14.190144 44.324976 14.343264C44.535936 14.45424 44.624976000000004 14.471136000000001 45 14.471136000000001C45.375024 14.471136000000001 45.464064 14.45424 45.675024 14.343264C45.967872 14.18928 46.247376 13.891248000000001 46.38168 13.589856000000001C46.519536 13.280591999999999 46.534176 12.746112 46.468560000000004 10.416C46.408272000000004 8.274336 46.341552 6.86544 46.270752 6.237888C46.141776 5.095632 45.697056 4.148256 44.896416 3.3101760000000002C44.010624 2.383056 42.990288 1.868352 41.762112 1.729056C40.378080000000004 1.5720960000000002 35.101632 1.432272 34.642464 1.540416M23.112000000000002 9.335376C20.058768 9.713376 17.192928 11.164608000000001 15.488784 13.195728C14.33352 14.572655999999998 13.763568 15.95496 13.695888000000002 17.544C13.648608000000001 18.654432 13.811904 19.481952000000003 14.254752 20.376C14.777472 21.431231999999998 15.588672 22.230432 16.615008 22.701216000000002L17.075232 22.912319999999998 16.964256000000002 23.15616C16.903248 23.290272 16.792704 23.5944 16.71864 23.832L16.584 24.264 16.584 26.544C16.584 28.616208000000004 16.592015999999997 28.850256 16.67184 29.112000000000002C16.851024 29.69976 17.156592 30.281424000000005 17.479008 30.648672L17.62704 30.817248 17.439072000000003 31.0212C16.563984 31.970544 16.034208 33.483360000000005 16.09176 34.868544C16.18656 37.15104 17.603904 39.101712 19.756176 39.911808C20.82984 40.315968000000005 22.221743999999997 40.340016000000006 23.376 39.974399999999996C25.28904 39.3684 26.708784 37.772832 27.147456000000002 35.736000000000004C27.259392000000002 35.21616 27.258912000000002 34.103712 27.146544 33.576C26.937791999999998 32.595888 26.483904000000003 31.672031999999998 25.882608 31.003248C25.730256 30.833808 25.676304000000002 30.740351999999998 25.707264 30.699600000000004C26.162112 30.101280000000003 26.479776 29.443296000000004 26.59272 28.865568L26.650272000000005 28.571184 27.113136 28.316976C30.598416 26.402784 32.432016000000004 24.792527999999997 33.460656 22.742688C34.05216 21.564 34.320384000000004 20.3532 34.319615999999996 18.865248C34.317936 15.616272 32.956848 12.731376000000001 30.624000000000002 11.032176C29.349984 10.10424 27.94752 9.568176 26.191632 9.338016C25.511760000000002 9.24888 23.822448 9.247440000000001 23.112000000000002 9.335376M23.832 12.293807999999999C20.499312 12.547968000000001 17.412624 14.598384 16.79544 16.968C16.668288 17.456112 16.657008 18.143328 16.769088 18.57096C16.939584 19.221312 17.336688 19.720368 17.890800000000002 19.980672000000002C18.174288 20.113872 18.278112 20.135856 18.699984 20.151888C19.319568 20.175456 19.417968000000002 20.136768 20.836464000000003 19.3116C22.289088 18.466608 23.2404 17.94072 23.824848 17.65968C24.25776 17.451456 24.347856 17.425296 24.634176 17.424672C25.857888000000003 17.42208 26.568528 18.712416 25.9104 19.742016C25.727568 20.028144 25.566624 20.139120000000002 24.496368 20.717088C21.109776 22.54608 19.794912 23.656560000000002 19.584384 24.865679999999998C19.548864 25.069488 19.535136 25.729248 19.544976000000002 26.761152L19.56 28.344 19.693296 28.570704C19.779696 28.717727999999997 19.906272 28.844304 20.053296 28.930704L20.28 29.064 21.6 29.064C22.875408 29.064 22.926816 29.060351999999998 23.121216 28.956432000000003C23.510496 28.748352 23.664 28.424304 23.664 27.810624C23.664 27.3324 23.775456000000002 26.991408000000003 24.028272 26.696016000000004C24.208368 26.485584000000003 24.388224 26.371872 25.560000000000002 25.727520000000002C29.673792 23.465424 31.096224 21.903936 31.287696 19.440048C31.449744 17.355456 30.763968000000002 15.3036 29.474208000000004 14.013792C28.428384 12.967968 27.128928000000002 12.425808 25.341216 12.289439999999999C24.632879999999997 12.23544 24.596111999999998 12.235536000000002 23.832 12.293807999999999M20.826576 32.226096C18.976416 32.879183999999995 18.499872 35.247792 19.951728 36.574704C20.94984 37.486944 22.511808 37.446864000000005 23.469168 36.484463999999996C24.106128000000002 35.844144 24.350976000000003 35.049312 24.18864 34.148832C24.02952 33.265968 23.277408 32.45472 22.371264 32.18856C21.963168 32.068704 21.221376000000003 32.086704 20.826576 32.226096M2.592 33.546048C2.159424 33.688272000000005 1.796832 34.009968 1.6180320000000001 34.410144C1.4803680000000001 34.718256000000004 1.4648640000000002 35.291088 1.5314400000000001 37.612320000000004C1.652592 41.839248 1.7217120000000001 42.430992 2.209344 43.416000000000004C2.7383040000000003 44.484384000000006 3.644448 45.36792 4.721760000000001 45.86568C5.610336 46.276224 6.3444 46.353936 10.416 46.468560000000004C12.746112 46.534176 13.280591999999999 46.519536 13.589856000000001 46.38168C13.891248000000001 46.247376 14.18928 45.967872 14.343264 45.675024C14.45424 45.464064 14.471136000000001 45.375024 14.471136000000001 45C14.471136000000001 44.624976000000004 14.45424 44.535936 14.343264 44.324976C14.190144 44.033808 13.893264 43.7544 13.589856000000001 43.61592C13.395743999999999 43.527312 13.262880000000001 43.51296 12.528 43.501296C11.098848 43.478592 8.37096 43.392384 7.464 43.341312C6.202032 43.270176 5.817696 43.148112 5.334768 42.665232C4.851888000000001 42.182304 4.729824 41.797968000000004 4.658688 40.536C4.607616 39.62904 4.521408 36.901152 4.498704 35.472C4.48368 34.523472000000005 4.440624000000001 34.362912 4.100448 33.986399999999996C3.827328 33.684048 3.507264 33.539376 3.072 33.521424C2.874 33.513312 2.658 33.524352 2.592 33.546048M44.592 33.546048C44.16072 33.687888 43.799712 34.007424 43.61592 34.410144C43.527312 34.604256 43.51296 34.737120000000004 43.501296 35.472C43.478592 36.901152 43.392384 39.62904 43.341312 40.536C43.270176 41.797968000000004 43.148112 42.182304 42.665232 42.665232C42.182304 43.148112 41.797968000000004 43.270176 40.536 43.341312C39.62904 43.392384 36.901152 43.478592 35.472 43.501296C34.737120000000004 43.51296 34.604256 43.527312 34.410144 43.61592C34.106736 43.7544 33.809855999999996 44.033808 33.656736 44.324976C33.54576 44.535936 33.528864 44.624976000000004 33.528864 45C33.528864 45.375024 33.54576 45.464064 33.656736 45.675024C33.81072 45.967872 34.108752 46.247376 34.410144 46.38168C34.719408 46.519536 35.253888 46.534176 37.584 46.468560000000004C41.772240000000004 46.350672 42.416064 46.278096 43.372128000000004 45.81624C44.69496 45.17712 45.771792 43.900464 46.124784 42.552672C46.306464 41.859072 46.37688 40.841376 46.468560000000004 37.584C46.55088 34.660176 46.530672 34.462608 46.100448 33.986399999999996C45.827328 33.684048 45.507264 33.539376 45.072 33.521424C44.874 33.513312 44.658 33.524352 44.592 33.546048" stroke="none" fill="#FFF" fill-rule="evenodd" stroke-width="0.048"></path>
</svg>