<svg xmlns="http://www.w3.org/2000/svg" viewBox="0 0 48 48" version="1.1">
  <path d="M36 0.548688C35.511120000000005 0.68472 35.076384000000004 1.00656 34.807296 1.431696C34.7292 1.555056 34.541712000000004 2.0016000000000003 34.390608 2.424C33.726432 4.280736 33.044256000000004 5.43408 31.924656 6.593280000000001C30.68088 7.881024 29.480159999999998 8.639376 27.592703999999998 9.329328C26.517791999999996 9.722256 26.445216000000002 9.757728 26.132016000000004 10.043951999999999C25.300800000000002 10.803647999999999 25.275456000000002 12.110016 26.076432 12.908928C26.367024 13.198800000000002 26.554223999999998 13.293552 27.552 13.656047999999998C29.351232000000003 14.309616000000002 30.437808 14.962608000000001 31.625472000000002 16.104C32.867472 17.297568 33.665088 18.571776 34.344816 20.448C34.706112 21.445248 34.800912000000004 21.632687999999998 35.091072 21.923568C35.889984 22.724544 37.196352 22.6992 37.956048 21.867984000000003C38.24227200000001 21.554784 38.277744 21.482208 38.670672 20.407296C39.36576 18.505824 40.128864 17.302272 41.429664 16.056C42.607488 14.927567999999999 43.71264 14.2752 45.576 13.608576000000001C45.9984 13.457472 46.444944 13.270128000000001 46.568304 13.192272C47.309664000000005 12.724416 47.66376 11.852112 47.44824 11.02464C47.35152 10.653312 47.232912 10.4328 46.976592 10.14768C46.698048 9.837888 46.463184 9.71424 45.476784 9.358128C43.583088000000004 8.674512 42.406368 7.9405920000000005 41.154816000000004 6.662544C39.973296000000005 5.4560640000000005 39.309504 4.36344 38.647152 2.534976C38.487552 2.094432 38.311727999999995 1.6452480000000003 38.256432000000004 1.5368160000000002C37.859424000000004 0.758592 36.843888 0.313872 36 0.548688M16.752 3.555408C12.635280000000002 3.6475199999999997 8.363712 3.856272 7.368 4.014048000000001C5.139024 4.367136 3.238176 5.9089920000000005 2.376432 8.062896C2.0712960000000002 8.825616 1.9691040000000002 9.411216000000001 1.8485280000000002 11.088000000000001C1.5967200000000001 14.589888000000002 1.51752 17.2008 1.517376 22.008C1.517184 26.992800000000003 1.599408 29.58792 1.874064 33.264C1.987968 34.788144 2.139264 35.46648 2.566848 36.37008C3.433872 38.202096 5.173488000000001 39.554592 7.176 39.953568C7.762272 40.070352 10.096224 40.22688 12.288 40.296432C12.7764 40.311888 13.246176 40.335312 13.332 40.348464L13.488 40.372368 13.488 42.070704C13.488 43.766256000000006 13.524432000000001 44.31456 13.664928 44.733888C13.970256000000001 45.645024 14.609808 46.371744 15.48 46.796256C15.9984 47.049168 16.418928 47.144304 17.011008 47.142576C17.83152 47.140223999999996 18.500544 46.907808 19.155264 46.397616C19.32864 46.262544 20.943936 44.8884 22.7448 43.344C24.660767999999997 41.700864 26.073216000000002 40.523424000000006 26.149536 40.505664C26.221296000000002 40.489008 26.82 40.47264 27.48 40.469328C30.2292 40.455456 35.917584 40.240176 37.872 40.076016C38.977488 39.983184 39.949487999999995 39.704544 40.734384000000006 39.255456C42.392592 38.306736 43.579152 36.679584 43.939104 34.860864C44.145936 33.815808 44.358384 30.221328 44.45328 26.16L44.508816 23.784 44.400432 23.496000000000002C44.255424000000005 23.110608 43.850496 22.704384 43.493088 22.58568C43.141344000000004 22.468848 42.630048 22.499280000000002 42.320784 22.655472C42.03696 22.7988 41.736864000000004 23.116512 41.602896 23.415552C41.509584000000004 23.623824000000003 41.499696 23.762784 41.46552 25.344C41.372304 29.655552 41.141040000000004 33.6696 40.940688 34.452864000000005C40.775568 35.098608 40.548336 35.48736 40.0332 36.005472000000005C39.63456 36.406464 39.514752 36.4956 39.119184 36.68544C38.868864 36.805584 38.51232 36.937248 38.326944 36.978048C37.518624 37.155840000000005 32.909856 37.355664000000004 26.780496000000003 37.478688000000005L25.120992 37.512 24.847056000000002 37.656C24.671472 37.748304 23.279424 38.911296 20.968848 40.896C18.986448 42.598800000000004 17.292047999999998 44.031648000000004 17.20344 44.08008C17.005056 44.18856 16.80936 44.1552 16.650047999999998 43.985712L16.536 43.864368 16.512 41.192208L16.488 38.52 16.353312000000003 38.245728C16.189776 37.912704 15.870432000000001 37.62024 15.532176 37.493712C15.319344000000001 37.414080000000006 15.065280000000001 37.392288 13.82112 37.347120000000004C10.667136000000001 37.232592 8.119968 37.08192 7.7016 36.985056C6.96 36.813408 6.349248 36.456384 5.836992 35.895072C5.387087999999999 35.40216 5.109792 34.838736000000004 4.99536 34.185072C4.89576 33.616176 4.711536 30.748032 4.598592 28.008C4.516416 26.015376 4.516176000000001 18.015743999999998 4.5982080000000005 16.008C4.722528 12.964512 4.8957120000000005 10.370112 5.01792 9.72C5.258208000000001 8.442 6.340944 7.335216000000001 7.647408 7.03224C8.678832 6.793056 15.762048 6.529392 21.192 6.528096000000001C22.696800000000003 6.527760000000001 24.05184 6.507168 24.203136 6.482400000000001C24.739919999999998 6.394463999999999 25.110576 6.12144 25.348080000000003 5.6390400000000005C25.490208000000003 5.350272 25.498704 5.304144 25.478352 4.9330560000000006C25.453056000000004 4.47168 25.357872 4.2491520000000005 25.057247999999998 3.948528C24.948048 3.839328 24.757296000000004 3.700032 24.633360000000003 3.639024L24.408 3.528 21.408 3.5232000000000006C19.758 3.52056 17.6628 3.5350560000000004 16.752 3.555408M36.261504 5.7118079999999996C35.98368 6.249696 35.312016 7.266528 34.86624 7.824C34.44072 8.356176 33.349152000000004 9.448656 32.832 9.859968C32.27112 10.306080000000001 31.25376 10.977744 30.726336 11.250143999999999C30.485232000000003 11.374656 30.288 11.485968 30.288 11.497584C30.288 11.509152 30.42024 11.585376 30.581904 11.666976C32.031696000000004 12.398832000000002 33.543408 13.610496000000001 34.65048 14.928C35.33928 15.747743999999999 35.934528 16.62864 36.333024 17.418096000000002C36.414624 17.57976 36.490848 17.712 36.502416 17.712C36.514032 17.712 36.625344 17.514768 36.749856 17.273664C37.022976 16.744896 37.695071999999996 15.7272 38.140512 15.168000000000001C38.558352 14.643456 39.651456 13.550351999999998 40.176 13.132512C40.737696 12.685104 41.753664 12.014544 42.288192 11.738496L42.733056000000005 11.50872 42.474528 11.364672C41.630256 10.894176 41.398752 10.75368 40.940496 10.433568000000001C39.62736 9.516288 38.44416 8.32704 37.520976000000005 6.996528C37.242384 6.59496 37.094064 6.348624 36.635328 5.525472000000001L36.49128 5.266944 36.261504 5.7118079999999996" stroke="none" fill="#FFF" fill-rule="evenodd" stroke-width="0.048"></path>
</svg>