<svg xmlns="http://www.w3.org/2000/svg" viewBox="0 0 48 48" version="1.1">
  <path d="M15.648 7.328064C13.64496 7.6452480000000005 12.154463999999999 8.6004 11.100576 10.242288C10.484064 11.202767999999999 10.172304 12.323184000000001 10.172880000000001 13.576368C10.173456 14.778816 10.459104 15.797616000000001 11.083008 16.822272C11.274624000000001 17.137008 11.281392 17.160192000000002 11.199264000000001 17.219231999999998C10.887168 17.443392 10.404143999999999 17.890704 10.096944 18.240000000000002C9.196032 19.264319999999998 8.560944000000001 20.4672 8.252735999999999 21.733056C8.162976 22.101552 8.12712 22.181328 8.044176 22.196736C7.107696 22.370784 6.592848 22.525968 6.048 22.798464000000003C4.913184 23.366064 3.913968 24.334464 3.314256 25.44792C2.268048 27.39024 2.325504 29.748 3.465264 31.644288L3.684432 32.008896 3.284112 32.349792C1.8205920000000002 33.59592 0.811104 35.40408 0.524016 37.293312C0.39216 38.160912 0.697392 39.019344000000004 1.37184 39.677808C1.708992 40.006992000000004 2.151792 40.250928 2.622048 40.36656C3.56544 40.598496000000004 6.299904 40.724784 9.624 40.689984C12.701376000000002 40.657728 14.464464000000001 40.54128 15.16872 40.323648C15.534528000000002 40.210656 15.98448 39.951408 16.23216 39.710976L16.408368 39.54 16.568160000000002 39.694463999999996C16.935408000000002 40.049328 17.458896 40.316352 17.974128 40.411584000000005C18.89784 40.582368 21.398400000000002 40.703472000000005 24 40.703472000000005C26.6016 40.703472000000005 29.102159999999998 40.582368 30.025872 40.411584000000005C30.540192 40.316496 31.064784 40.049232 31.429968000000002 39.696144000000004L31.587984 39.543408 31.792992 39.732432C32.281728 40.182912 32.806416 40.384368 33.752304 40.48464C35.107536 40.628304 35.916144 40.664208 38.376 40.689984C41.700096 40.724784 44.434560000000005 40.598496000000004 45.377952 40.36656C46.754256000000005 40.02816 47.684496 38.665536 47.475984 37.293312C47.192064 35.424672 46.185840000000006 33.614208000000005 44.741136 32.372544L44.316432 32.007504 44.535168000000006 31.643568C45.636144 29.811791999999997 45.728304 27.518639999999998 44.777424 25.616016000000002C44.220384 24.501504 43.240176 23.491680000000002 42.144 22.903104000000003C41.512272 22.563936 40.885392 22.361328 39.955824 22.19592C39.872736 22.181136000000002 39.837168000000005 22.102272 39.747264 21.733056C39.519888 20.799216 39.14990400000001 19.966704 38.598 19.147104000000002C38.080512000000006 18.378624 37.402704 17.651808 36.798912 17.21784C36.714096 17.156928 36.718512000000004 17.140176 36.890496 16.871328C37.507536 15.90672 37.826976 14.786112 37.828656 13.580112C37.83048 12.252576 37.504944 11.154432 36.792048 10.083599999999999C35.893152 8.73336 34.479168 7.769664 32.88 7.4172959999999994C32.323392 7.294656000000001 31.229568 7.268400000000001 30.635424000000004 7.363392C27.893712 7.8018719999999995 25.784256000000003 9.95832 25.389312 12.726528000000002C25.316208000000003 13.239072000000002 25.355328 14.327231999999999 25.465056000000004 14.832C25.61688 15.530351999999999 25.885247999999997 16.18992 26.293296 16.86744L26.464032 17.150928 26.276016000000002 17.298096C25.95624 17.548416 25.346591999999998 18.151680000000002 25.057344 18.504C24.740928000000004 18.889392 24.301199999999998 19.550496000000003 24.13944 19.884C24.078623999999998 20.009376000000003 24.015888 20.112000000000002 24 20.112000000000002C23.984112 20.112000000000002 23.921376000000002 20.009424 23.860560000000003 19.884C23.698800000000002 19.550496000000003 23.259072 18.889392 22.942656 18.504C22.653408000000002 18.151680000000002 22.04376 17.548416 21.723984 17.298096L21.535968 17.150928 21.706704000000002 16.86744C22.336944000000003 15.820992 22.595088 14.966544 22.640688 13.776C22.672800000000002 12.938304 22.592112 12.346128 22.34184 11.582016000000001C21.62472 9.392832 19.686432 7.737264000000001 17.407776 7.367712C17.01048 7.303296 15.954816000000001 7.279488000000001 15.648 7.328064M15.608400000000001 10.387776C15.197376000000002 10.49088 14.594111999999999 10.817232 14.266752 11.113631999999999C13.126128000000001 12.146208 12.84624 13.683408000000002 13.550448 15.048C13.749024 15.43272 13.95552 15.665088 14.744928 16.392C14.992848 16.620288 15.080064 16.739712 15.1656 16.968C15.369936 17.513328 15.206784 18.219408 14.7924 18.583248C14.702015999999999 18.66264 14.391167999999999 18.84432 14.101728 18.986976000000002C13.398048 19.333728 12.969024 19.625952 12.562032 20.035584C12.122352000000001 20.478192 11.845488000000001 20.856336000000002 11.592431999999999 21.36C11.414208 21.714768000000003 11.108736 22.553568 11.146656 22.584048C11.154 22.589952 11.384112 22.709136 11.658 22.848912000000002C14.874672 24.490512 16.040352 28.532208000000004 14.186688 31.616256000000003C14.066400000000002 31.816416 13.968 31.994592 13.968 32.012208C13.968 32.029824 14.073792000000001 32.12496 14.203104000000002 32.223552C14.86008 32.724576 15.757536 33.808223999999996 16.217424 34.65576L16.40736 35.005824000000004 16.529664 34.764528C16.729008 34.371120000000005 17.294496000000002 33.555984 17.654111999999998 33.143664C17.955072 32.798544 18.508512 32.279952 18.775008 32.09328C18.875040000000002 32.023247999999995 18.874848 32.022432 18.706896 31.743551999999998C18.23928 30.96696 17.967744 30.249744 17.830416 29.428463999999998C17.711952 28.720032 17.752416 27.616848 17.921232 26.952C18.11016 26.207904000000003 18.3684 25.601568 18.736416 25.038096C19.38576 24.043728 20.225232 23.29536 21.257184000000002 22.79088C21.650496 22.598592 21.657936 22.591776 21.633792 22.44312C21.587712000000003 22.15896 21.278208 21.409728 21.042816000000002 21.012384C20.765616 20.54448 19.955328 19.699536 19.512 19.416144C19.3536 19.314912 19.003680000000003 19.128576 18.7344 19.002096C18.14472 18.725088 17.886432000000003 18.503856000000003 17.70456 18.12C17.532768 17.757504 17.518128 17.318064 17.665008 16.933824C17.782128 16.62744 17.872512 16.521456 18.323856000000003 16.161552C18.97344 15.643488000000001 19.392048 15.007439999999999 19.56288 14.278656C19.669536 13.823856000000001 19.636368 12.963984000000002 19.49544 12.528C19.196640000000002 11.603952 18.354623999999998 10.761168 17.424 10.454736C17.031888000000002 10.325568 16.006944 10.287792000000001 15.608400000000001 10.387776M30.672 10.432368C29.82096 10.68576 29.078784 11.308992000000002 28.671936 12.111888C28.383264 12.6816 28.284192 13.627296 28.442352 14.304C28.606080000000002 15.004800000000001 29.116176 15.760368000000001 29.719056000000002 16.195152C30.212928 16.55136 30.432047999999998 16.956672 30.431952000000003 17.514048C30.431952000000003 17.76384 30.402672000000003 17.893728 30.29544 18.12C30.113568 18.503856000000003 29.85528 18.725088 29.265600000000003 19.002096C28.99632 19.128576 28.6464 19.314912 28.488 19.416144C28.044672000000002 19.699536 27.234384000000002 20.54448 26.957183999999998 21.012384C26.721791999999997 21.409728 26.412288 22.15896 26.366208000000004 22.44312C26.342064 22.591776 26.349504 22.598592 26.742816000000005 22.79088C28.423296000000004 23.6124 29.605056000000005 25.08648 30.078768 26.952C30.247584 27.616848 30.288048 28.720032 30.169584 29.428463999999998C30.032256 30.249744 29.76072 30.96696 29.293104000000003 31.743551999999998L29.124768 32.023104000000004 29.228976 32.096064C29.953248 32.603376 31.013904000000004 33.867504 31.47312 34.770816L31.592496 35.005632 31.80552 34.613616C31.922639999999998 34.398 32.151984 34.033152 32.315183999999995 33.802800000000005C32.637312 33.348096 33.432048 32.501808 33.801311999999996 32.220192000000004C33.928224 32.123424 34.032000000000004 32.029824 34.032000000000004 32.012208C34.032000000000004 31.994592 33.933600000000006 31.816416 33.813311999999996 31.616256000000003C32.871408 30.0492 32.674512 28.139328 33.273120000000006 26.376C33.787872 24.859632 34.894752000000004 23.587488 36.342 22.848912000000002C36.615888 22.709136 36.846000000000004 22.589952 36.853344 22.584048C36.891264 22.553568 36.585792 21.714768000000003 36.407568 21.36C36.154512000000004 20.856336000000002 35.877648 20.478192 35.437968000000005 20.035584C35.027184 19.622112 34.625712 19.35024 33.854352 18.96312C33.44256 18.75648 33.224832 18.616176 33.121104 18.490608C32.73216 18.019968 32.636064 17.473392 32.848416 16.939632C32.94504 16.696704 33.028943999999996 16.581552000000002 33.247392 16.392C33.399552 16.26 33.687744 15.99 33.887856 15.792C35.459088 14.237424 35.004528 11.595648 33 10.631808000000001C32.4672 10.375632 32.202287999999996 10.319280000000001 31.545648000000003 10.322592C31.159344 10.324512 30.94272 10.351728 30.672 10.432368M8.30256 25.199664000000002C7.608192 25.31016 7.018464 25.630464 6.48168 26.188655999999998C5.396688 27.316944 5.270016 28.976352 6.170592 30.264C6.366048 30.543504 6.549887999999999 30.7272 7.128048000000001 31.220976C7.503552000000001 31.541615999999998 7.651248000000001 31.859328 7.653984 32.352000000000004C7.657776 33.045024 7.353936 33.450048 6.53544 33.842928C5.824272 34.184256000000005 5.42568 34.45776 4.945248 34.93392C4.494528 35.380704 4.1665920000000005 35.845968000000006 3.91176 36.40032C3.7606080000000004 36.729168 3.5283360000000004 37.4328 3.560592 37.464144000000005C3.594336 37.496976000000004 4.690367999999999 37.584768 5.712 37.636464C7.205328 37.712112 12.066912 37.665552 13.194816 37.564848C13.653984000000001 37.523856 14.040672 37.479312 14.054160000000001 37.465872C14.094672000000001 37.425360000000005 13.923792 36.854592 13.754688 36.465648C13.515168 35.914656 13.113216000000001 35.348832 12.631295999999999 34.884288C12.133824 34.40472 11.844624000000001 34.207104 11.127936 33.856992000000005C10.501776000000001 33.551136 10.279200000000001 33.357791999999996 10.104192 32.967791999999996C9.912192 32.539968 9.918912 32.121456 10.124496 31.703856C10.248288 31.452384000000002 10.350624 31.336703999999997 10.717056 31.033824000000003C11.688768 30.230639999999998 12.090096 29.37744 12.035616 28.230912C11.993904 27.352992000000004 11.724672 26.750688000000004 11.088000000000001 26.110992000000003C10.684848 25.70592 10.174464 25.407648000000002 9.654576 25.27344C9.280512 25.176864000000002 8.659008 25.142928 8.30256 25.199664000000002M23.490576 25.196832C22.790064 25.308384000000004 22.246512 25.598496 21.694944 26.155152C21.040416 26.815727999999996 20.770848 27.478752000000004 20.775696 28.416C20.778672 28.999104000000003 20.857968 29.350848 21.094896 29.832C21.321168 30.291504 21.627456000000002 30.663984 22.058927999999998 31.00416C22.258752 31.161696 22.486032 31.370928000000003 22.564032 31.469040000000003C22.867008000000002 31.850304 22.931231999999998 32.532000000000004 22.7076 32.99304C22.521696 33.376272 22.292544 33.574176 21.729312 33.83784C20.73816 34.301856 20.120208 34.807007999999996 19.522848 35.641632C19.285248 35.973552 18.934224 36.72144 18.822143999999998 37.134336L18.729264 37.476624 19.000608 37.505232C20.241648 37.63584 20.909904 37.656 24 37.656C27.090096 37.656 27.758352 37.63584 28.999392 37.505232L29.270736000000003 37.476624 29.177856 37.134336C29.065776000000003 36.72144 28.714752000000004 35.973552 28.477152 35.641632C27.882768 34.811184 27.260832 34.301376 26.284608000000002 33.844368C25.543632 33.497472 25.210128 33.100032 25.160784 32.505072C25.110768 31.902336 25.323168000000003 31.491360000000004 25.933344 31.010256000000002C26.372159999999997 30.664272000000004 26.677776 30.293712000000003 26.905104 29.832C27.142031999999997 29.350848 27.221328 28.999104000000003 27.224304 28.416C27.229152 27.480816000000004 26.961264 26.822448 26.304864000000002 26.156496C25.85568 25.700736000000003 25.478544 25.463424000000003 24.945504 25.30104C24.577584 25.188959999999998 23.861808 25.137696000000002 23.490576 25.196832M38.76 25.1832C38.025936 25.30056 37.411584000000005 25.609008 36.912 26.110992000000003C36.275328 26.750688000000004 36.006096 27.352992000000004 35.964384 28.230912C35.910384 29.367312 36.313392 30.2364 37.251360000000005 31.005936000000002C37.850159999999995 31.497264 38.017872 31.798800000000004 38.020608 32.389152C38.021616 32.607791999999996 37.990272000000004 32.759568 37.906128 32.943312C37.714464 33.362016000000004 37.531248 33.5268 36.918048 33.832032C36.611136 33.984767999999995 36.2628 34.171344000000005 36.144 34.246608C35.312064 34.773551999999995 34.525248 35.725872 34.17816 36.625968C34.02144 37.032288 33.911664 37.431696 33.946992 37.467024C34.102272000000006 37.622256 40.144224 37.74504 42.288000000000004 37.636464C43.309632 37.584768 44.405664 37.496976000000004 44.439408 37.464144000000005C44.471664000000004 37.4328 44.239392 36.729168 44.08824 36.40032C43.833408000000006 35.845968000000006 43.505472000000005 35.380704 43.054752 34.93392C42.573408 34.456848 42.174624 34.183488 41.462399999999995 33.842448000000005C40.64976 33.45336 40.344912 33.046992 40.344336 32.352000000000004C40.343904 31.874256000000003 40.504368 31.534176 40.882368 31.211808C41.44728 30.729983999999998 41.63472 30.542399999999997 41.829408 30.264C42.729984 28.976399999999998 42.603408 27.318288 41.51832 26.188031999999996C40.892352 25.536 40.215648 25.221936 39.348768 25.181088C39.10416 25.169567999999998 38.8392 25.170527999999997 38.76 25.1832" stroke="none" fill="#FFF" fill-rule="evenodd" stroke-width="0.048"></path>
</svg>