<svg xmlns="http://www.w3.org/2000/svg" viewBox="0 0 48 48" version="1.1">
  <path d="M21.672 1.5359040000000002C19.501632 1.6783200000000003 17.460192000000003 2.110224 15.504 2.840928C8.798112000000001 5.345856 3.745584 11.046 2.08848 17.976C1.148112 21.908736 1.328688 25.979568 2.6144640000000003 29.832C2.983584 30.938016 3.2985119999999997 31.693727999999997 3.8191680000000003 32.722992000000005L4.2132000000000005 33.501936 4.023936 33.970992C3.282192 35.809152 2.283456 38.897856 2.020704 40.166351999999996C1.93848 40.563216000000004 1.956432 41.17152 2.062656 41.586768C2.464368 43.157472000000006 4.053264 44.194416 5.6442239999999995 43.924224C6.375311999999999 43.800048 8.700384000000001 43.050095999999996 10.880112 42.235344000000005C11.650176 41.947488 12.301295999999999 41.712 12.32712 41.712C12.352896 41.712 12.72816 41.895024 13.160976000000002 42.118656C14.633712000000001 42.879648 16.187856 43.4652 17.832 43.878528C18.860688 44.137104 19.235664 44.152992000000005 19.638816 43.955040000000004C20.548368 43.508304 20.77584 42.35544 20.105136 41.59152C19.860144 41.312496 19.608624 41.201184 18.76416 40.998048C16.925520000000002 40.555824 15.154176 39.8472 13.656 38.954592C12.672863999999999 38.3688 12.489312000000002 38.363184 11.208 38.879232C9.022224 39.759552 5.41608 40.977024 5.1193919999999995 40.934736C4.954224 40.911216 4.96896 40.736208000000005 5.209776000000001 39.8592C5.626704 38.3412 6.2669760000000005 36.479904000000005 7.007856000000001 34.632C7.505184000000001 33.391584 7.509504000000001 33.157776000000005 7.049376 32.368608C5.71128 30.073392000000002 4.9103520000000005 27.645216 4.5977760000000005 24.936C4.504416 24.126528 4.5196320000000005 21.736944 4.623456 20.904C5.210784 16.192992 7.336704000000001 12.150192 10.848 9.066864C12.114624000000001 7.954608 13.4448 7.077264 14.983872 6.3388800000000005C16.864944 5.43648 18.732768 4.895087999999999 20.904 4.623024C21.855504 4.503792 24.183888 4.5047999999999995 25.128 4.624896000000001C27.264672 4.896624 29.210784 5.467104 31.043088 6.3588C33.106992000000005 7.3632480000000005 34.680288 8.502864 36.288000000000004 10.158C38.618688000000006 12.557471999999999 40.200288 15.447408000000001 40.998048 18.76416C41.106 19.21296 41.239824 19.646112 41.304912 19.757424C41.779728 20.569488 42.922176 20.739072 43.615104 20.100288C43.728912 19.995408 43.881888000000004 19.787712000000003 43.955040000000004 19.638816C44.150688 19.24032 44.134512 18.864912 43.877136 17.832C42.707856 13.139664 40.017072 9.005424 36.18792 6.017952C33.020736 3.54696 29.269536000000002 2.041728 25.2 1.608864C24.348959999999998 1.5183360000000001 22.517088 1.480464 21.672 1.5359040000000002M31.891584 19.533984C29.181744 19.779216 26.577120000000004 20.820384 24.53688 22.473888000000002C23.994864 22.913184 23.039664000000002 23.859648 22.591536 24.401424000000002C21.007728 26.316432000000002 20.013312000000003 28.563840000000003 19.625856000000002 31.104C19.537728 31.681968000000005 19.519728 32.00352 19.519728 33C19.519728 33.99648 19.537728 34.318031999999995 19.625856000000002 34.896C20.001168 37.35672 20.985696 39.626832 22.473888000000002 41.46312C22.913184 42.005136 23.859648 42.960336 24.401424000000002 43.408464C28.190832 46.542576 33.426912 47.367696 37.988736 45.549600000000005C38.386512 45.391056000000006 38.8848 45.170064 39.096000000000004 45.058512L39.480000000000004 44.855664000000004 40.352496 45.200448C42.317952000000005 45.977184 42.969504 46.080528 43.909824 45.76488C45.30768 45.295632 46.142592 43.957104 45.970704 42.460848C45.924672 42.059952 45.64848 41.18904 45.236112 40.144560000000006L44.930016 39.36912 45.173952 38.84856C45.842688 37.421376 46.18656 36.257183999999995 46.398095999999995 34.704C46.524144 33.778464 46.512336 32.011584 46.374048 31.104C45.987072 28.564656 44.99232 26.31648 43.408464 24.401424000000002C42.960336 23.859648 42.005136 22.913184 41.46312 22.473888000000002C39.631344 20.989344000000003 37.323840000000004 19.987488 34.92 19.633008C34.161408 19.521168 32.598144000000005 19.470048 31.891584 19.533984M31.874448000000005 22.567104C29.939712000000004 22.769136000000003 27.895056000000004 23.62272 26.379551999999997 24.861072C23.658192 27.084816000000004 22.211568 30.562752000000003 22.562112 34.038912C22.765152 36.051936 23.598192 38.076816 24.855360000000005 39.612864C25.225776000000003 40.065504 25.936128 40.776576 26.380944 41.140032C27.276672 41.871984 28.592736000000002 42.593424000000006 29.695824 42.957216C31.941456000000002 43.697808 34.467552 43.653600000000004 36.658656 42.835296C37.194576 42.635136 37.562256000000005 42.45792 38.368848 42.010848C38.904624000000005 41.71392 38.959104 41.694336 39.304848 41.674848000000004C39.714912 41.651664000000004 39.63576 41.627232 40.947552 42.182208C41.81424 42.54888 42.937008 42.951024000000004 42.978432000000005 42.909600000000005C43.041264 42.84672 42.531456 41.428176 42.081504 40.414032C41.934624 40.082976 41.788896 39.710544 41.757648 39.586512000000006C41.672832 39.249648 41.7348 38.904095999999996 41.954064 38.491632C42.438864 37.579584000000004 42.673392 37.091664 42.8352 36.658656C43.653552 34.468464 43.697856 31.941551999999998 42.957216 29.695824C42.718320000000006 28.971408 42.159312 27.823728 41.743152 27.203136C40.691520000000004 25.63488 39.32568 24.437856 37.624896 23.593824C35.871792 22.723872 33.842688 22.361568 31.874448000000005 22.567104" stroke="none" fill="#FFF" fill-rule="evenodd" stroke-width="0.048"></path>
</svg>