<svg xmlns="http://www.w3.org/2000/svg" viewBox="0 0 48 48" version="1.1">
  <path d="M14.43048 1.009776C13.957248000000002 1.0839839999999998 13.252416 1.288848 12.789216000000001 1.486752C12.072816 1.792848 11.760816 1.992528 10.6596 2.849952C7.657968 5.187024 5.191776000000001 7.65312 2.849616 10.6596C2.532384 11.066832 2.179392 11.538576 2.0652480000000004 11.707968C1.622064 12.365328 1.254288 13.254816 1.071168 14.112C0.947568 14.690544000000001 0.949392 16.173216 1.074432 16.752C1.333584 17.951616 1.841616 18.961344 2.647104 19.877760000000002C3.138192 20.43648 5.232192 22.645824 6.864 24.32688C7.6164000000000005 25.102031999999998 8.253408 25.766688000000002 8.279615999999999 25.803888C8.316576 25.856448000000004 7.734960000000001 26.465472000000002 5.682336 28.523808C4.131408 30.07896 2.947632 31.305072 2.820336 31.488C2.37168 32.132976 2.1148800000000003 32.795424000000004 1.9968000000000001 33.612192C1.74768 35.335632 1.733664 40.372223999999996 1.971264 42.804336C2.0224320000000002 43.328592 2.148144 43.804128 2.331216 44.166000000000004C2.598624 44.694528 3.3054720000000004 45.401376 3.834 45.668784C4.408224 45.959232 4.865712 46.032048 6.768 46.13568C8.183615999999999 46.212816000000004 11.819376 46.212384 12.984 46.13496C14.960160000000002 46.003536000000004 15.685968 45.794112 16.633584000000003 45.08184C16.854048 44.916144 18.09336 43.714752000000004 19.559808 42.245184C20.95896 40.843152 22.121616000000003 39.696 22.1436 39.696C22.165536 39.696 22.835712 40.327824 23.632896 41.1C25.386672 42.798912 27.573743999999998 44.870784 28.12224 45.352896C29.035919999999997 46.155984 30.052416 46.666896 31.250544 46.925232C31.827504 47.049648000000005 33.312144 47.05176 33.888 46.929024C34.711872 46.75344 35.546784 46.409808 36.247248 45.958031999999996C36.646272 45.700656 37.673568 44.901120000000006 38.616 44.114544C41.070288 42.066048 43.153872 39.898896 45.233808 37.231248C46.05624 36.176352 46.406544000000004 35.576304 46.69512 34.728C46.96152 33.94488 47.016192000000004 33.575088 47.014320000000005 32.568C47.01216 31.366848 46.870896 30.695568 46.415952000000004 29.72448C45.928608000000004 28.684176 45.560736 28.259712 41.488128 24.038496000000002C40.502448 23.016863999999998 39.696 22.163568 39.696 22.142256000000003C39.696 22.120944 40.496928000000004 21.304416 41.475840000000005 20.32776C43.140816 18.666624 43.666656 18.090432 43.990656 17.572224000000002C45.049392 15.878592 45.290016 13.723872 44.608752 12.037632C44.213568 11.059536000000001 43.416288 9.964416000000002 41.803296 8.184000000000001C40.187904 6.400896 37.69728 4.252224 36.579264 3.6771840000000005C34.692096 2.70648 32.485776 2.795568 30.585312 3.919152C29.940768 4.300224 29.479584000000003 4.71264 27.67224 6.524159999999999C26.695584 7.5030719999999995 25.87848 8.304 25.856496 8.304C25.834463999999997 8.304 25.164288 7.672224 24.367104 6.9C22.613328 5.2010879999999995 20.426256000000002 3.1292159999999996 19.877760000000002 2.647104C18.982224000000002 1.859952 18.022032 1.367808 16.85424 1.097376C16.37928 0.9874080000000001 14.9112 0.93432 14.43048 1.009776M14.872464 3.989376C14.428224000000002 4.046688 13.797168 4.285584 13.417488 4.540223999999999C12.777216000000001 4.969632000000001 11.108736 6.32016 10.08 7.241664C8.910336000000001 8.289408 7.4484 9.807312 6.329184000000001 11.136000000000001C5.7402239999999995 11.835168000000001 4.845312 12.969408000000001 4.595712 13.333008000000001C3.9564960000000005 14.264111999999999 3.785136 15.468912000000001 4.136688 16.56C4.433712 17.481792000000002 4.44744 17.497488 9.920496 23.179056L10.45704 23.736 17.096496000000002 17.097072L23.736 10.458143999999999 22.968 9.7164C22.5456 9.308448 21.891072 8.679648 21.513504 8.319023999999999L20.827056 7.663392 19.593504 8.889504C18.210336 10.26432 18.164208 10.296 17.544 10.296C16.521696 10.296 15.814416 9.251856 16.1784 8.28C16.276992 8.016672 16.387488 7.889712 17.467104000000003 6.799392L18.648 5.606832 18.196704 5.177376C17.441807999999998 4.459056 16.763328 4.112112 15.870528000000002 3.987936C15.453168 3.9299040000000005 15.332111999999999 3.930048 14.872464 3.989376M33.264 6.069552C32.664672 6.198192 32.218703999999995 6.40584 31.704 6.795936C31.358639999999998 7.05768 6.441599999999999 31.945584 6.4832160000000005 31.987199999999998C6.4959359999999995 31.99992 6.742128000000001 32.153328 7.030224 32.328048C8.591808 33.274944 10.169664 34.54992 11.809872 36.190128C13.45008 37.830335999999996 14.725056 39.408192 15.671952000000001 40.969776C15.846672000000002 41.257872 16.00008 41.504064 16.012800000000002 41.516784C16.055184 41.559216 40.944767999999996 16.638096 41.212512000000004 16.2852C41.727024 15.606959999999999 41.969952 14.921136000000002 41.973696000000004 14.136000000000001C41.97744 13.359648000000002 41.818416 12.95616 41.17488 12.109200000000001C39.731616 10.209648 37.934256000000005 8.402688000000001 35.99448 6.901007999999999C35.437872 6.470112 35.076864 6.257280000000001 34.707216 6.141984C34.301808 6.0155520000000005 33.664656 5.9835840000000005 33.264 6.069552M30.887952000000002 30.915504L24.264 37.543008 24.820943999999997 38.079504C29.313168 42.406752000000004 30.160031999999998 43.193760000000005 30.645936 43.493136C31.32744 43.912992 32.204304 44.110272 32.984496 44.019216C33.818304 43.92192 34.317552 43.683936 35.331312 42.900432C37.333439999999996 41.353152 39.231744 39.611952 40.708704 37.968C41.678064 36.889056000000004 43.141728 35.075808 43.498464 34.512C43.867392 33.928992 44.034864 33.306816000000005 44.028240000000004 32.544000000000004C44.018736000000004 31.443984 43.65864 30.668832 42.67944 29.640384L42.326879999999996 29.270064 41.33544 30.252864000000002C40.721328 30.861648000000002 40.261776000000005 31.277568 40.128 31.345776C39.809568 31.508112 39.27816 31.529904000000002 38.921424 31.395264C38.157360000000004 31.106928000000003 37.776048 30.228672 38.071728 29.438352C38.164176 29.191344 38.287872 29.047344000000002 39.206592 28.117632L40.23768 27.07416 39.909648000000004 26.725104C39.221808 25.993056000000003 37.562304 24.288 37.537632 24.288C37.523472000000005 24.288 34.531104 27.270384000000004 30.887952000000002 30.915504M4.922976 34.836C4.79856 35.779968000000004 4.811376 39.972864 4.9445760000000005 41.928000000000004C4.999488 42.733536 5.039568 42.880896 5.224128 42.955344000000004C5.567904 43.094064 9.390864 43.213248 11.4852 43.150512000000006C12.814800000000002 43.11072 13.392 43.07424 13.392 43.030080000000005C13.392 42.98736 13.030560000000001 42.404544 12.68856 41.89584C11.062512 39.477168 8.522832 36.937488 6.10416 35.31144C5.595456 34.96944 5.01264 34.608000000000004 4.96992 34.608000000000004C4.960608000000001 34.608000000000004 4.939488000000001 34.710624 4.922976 34.836" stroke="none" fill="#FFF" fill-rule="evenodd" stroke-width="0.048"></path>
</svg>