<?xml version="1.0" encoding="UTF-8"?>
<svg id="Layer_2" xmlns="http://www.w3.org/2000/svg" version="1.1" viewBox="0 0 32.01 32.01">
  <!-- Generator: Adobe Illustrator 29.7.1, SVG Export Plug-In . SVG Version: 2.1.1 Build 8)  -->
  <defs>
    <style>
      .st0 {
        fill: #fff;
        fill-rule: evenodd;
      }

      .st1 {
        fill: none;
        stroke: #fff;
        stroke-dasharray: 14.5 31.07 1.04 2.07;
        stroke-linecap: round;
        stroke-miterlimit: 10;
        stroke-width: .5px;
      }
    </style>
  </defs>
  <g id="Layer_1-2">
    <circle class="st1" cx="16" cy="16" r="15.5"/>
    <g id="button-play--button-television-buttons-movies-play-tv-video-controls">
      <path id="Union" class="st0" d="M13.89,9.43c-1.06-.52-2.39.18-2.39,1.41v10.34c0,1.22,1.33,1.93,2.39,1.41,1.43-.7,3.53-1.8,5.29-2.95.87-.57,1.68-1.17,2.27-1.75.3-.29.55-.59.74-.89.18-.3.32-.63.32-.98s-.13-.68-.32-.98c-.18-.3-.44-.6-.74-.89-.59-.58-1.4-1.18-2.27-1.75-1.75-1.15-3.86-2.25-5.29-2.95v-.02Z"/>
    </g>
  </g>
</svg>