<svg xmlns="http://www.w3.org/2000/svg" viewBox="0 0 14 14" version="1.1">
  <path d="M6.850536 0.019334C6.720938 0.06167 6.604108 0.16839200000000001 6.5422139999999995 0.301L6.503 0.385 6.49936 4.332566L6.495706 8.280132 5.40036 7.186508C4.158532 5.9466540000000006 4.226488 6.003606 3.989538 6.0043619999999995C3.8179120000000006 6.004894 3.67157 6.087242 3.5774480000000004 6.236244C3.516534 6.332648 3.49482 6.420218 3.503108 6.535998C3.517766 6.740888 3.4142780000000004 6.62627 5.149116 8.358868000000001C6.3607320000000005 9.568916 6.727812 9.927778 6.778758 9.951984C6.916056 10.01721 7.083944 10.01721 7.221242 9.951984C7.272188 9.927778 7.639268 9.568916 8.850884 8.358868000000001C10.264212 6.947374 10.418394000000001 6.789034 10.452414000000001 6.714316C10.603782 6.381788 10.369534000000002 6.005496 10.010462 6.0043619999999995C9.773512 6.003606 9.841468 5.9466540000000006 8.59964 7.186508L7.504294 8.280132 7.50064 4.332566L7.497 0.385 7.456764 0.297892C7.4091640000000005 0.194838 7.297724 0.082586 7.199514 0.038751999999999995C7.116284 0.0015960000000000002 6.9356 -0.008456 6.850536 0.019334M3.420942 13.006042C3.322032 13.020518000000001 3.227462 13.070371999999999 3.1472840000000004 13.150284000000001C3.066896 13.230392 3.033086 13.292706 3.010434 13.402424C2.9650320000000003 13.622434 3.090976 13.865516 3.300486 13.962284L3.367 13.993 6.965 13.996962C9.710148 13.999986 10.577938 13.996976 10.626 13.984278C10.717924 13.960002000000001 10.762108 13.934774 10.839597999999999 13.862282C10.965738000000002 13.744290000000001 11.01975 13.583962 10.990308 13.414912C10.969980000000001 13.298110000000001 10.936562 13.233836 10.852716 13.150284000000001C10.769010000000002 13.066844 10.679648 13.021582 10.566276 13.005188C10.460898 12.989942 3.525242 12.990768000000001 3.420942 13.006042" stroke="none" fill="#FFF" fill-rule="evenodd" stroke-width="0.014"></path>
</svg>