<svg width="30" height="20" viewBox="0 0 30 20" fill="none" xmlns="http://www.w3.org/2000/svg">
<path d="M10.173 18.0916L0.218216 8.52131C0.0727393 8.38145 -1.92639e-07 8.19165 -1.94783e-07 8.01183C-1.96928e-07 7.83202 0.0727393 7.64221 0.218216 7.50235C0.50917 7.22264 0.987166 7.22264 1.27812 7.50235L11.2329 17.0726C13.3111 19.0706 16.6883 19.0706 18.7665 17.0726L28.7213 7.49236C29.0122 7.21265 29.4902 7.21265 29.7812 7.49236C30.0722 7.77208 30.0722 8.23161 29.7812 8.51132L19.8264 18.0816C17.1663 20.639 12.8331 20.639 10.173 18.0816L10.173 18.0916ZM18.725 3.58634C18.725 1.60836 17.052 1.54397e-07 14.9945 1.78932e-07C12.9371 2.03467e-07 11.2641 1.60836 11.2641 3.58634C11.2641 5.56433 12.9371 7.17269 14.9945 7.17269C17.052 7.17269 18.725 5.56433 18.725 3.58634Z" fill="white"/>
</svg>
