<svg width="20" height="30" viewBox="0 0 20 30" fill="none" xmlns="http://www.w3.org/2000/svg">
<path d="M1.90805 10.1731L11.4783 0.218312C11.6182 0.0728352 11.808 9.65586e-05 11.9878 9.65744e-05C12.1676 9.65901e-05 12.3574 0.0728353 12.4973 0.218313C12.777 0.509267 12.777 0.987262 12.4973 1.27822L2.92701 11.233C0.92905 13.3112 0.92905 16.6884 2.92701 18.7666L12.5072 28.7214C12.787 29.0123 12.787 29.4903 12.5072 29.7813C12.2275 30.0722 11.768 30.0722 11.4883 29.7813L1.91804 19.8265C-0.639352 17.1664 -0.639351 12.8332 1.91804 10.1731L1.90805 10.1731ZM16.4133 18.7251C18.3912 18.7251 19.9996 17.0521 19.9996 14.9946C19.9996 12.9372 18.3912 11.2642 16.4133 11.2642C14.4353 11.2642 12.8269 12.9372 12.8269 14.9946C12.8269 17.0521 14.4353 18.7251 16.4133 18.7251Z" fill="white"/>
</svg>
